<?xml version="1.0"?>
<VTKFile type="UnstructuredGrid"  version="0.1"  >
<UnstructuredGrid>
<Piece  NumberOfPoints="746" NumberOfCells="749">
<Points>
<DataArray  type="Float64"  NumberOfComponents="3"  format="ascii">0.237822434576351 -0.2112715429267966 0.57105019085973  0.2588657901642518 -0.2137025407697239 0.5416231836556357  0.1553129760516884 -0.2277725000347522 0.5788805081124631  0.1817550727682498 -0.4617812236551717 -0.1345541909135288  0.1616194537662568 -0.4773588005203375 -0.1286033858374745  0.2081591889135417 -0.3837230827055651 -0.148504751442394  0.09266595662331954 -0.6007705917591479 0.009268978289923846  0.001279257831821881 -0.5183333194248357 0.002858994233038203  0.1014253881257866 -0.6264624548887937 -0.005367907024452598  -0.0076874336411175 -0.5164210613798321 -0.00306481204230924  0.2779046188854203 -0.2214286545031544 0.4921665181044245  0.2750289649039992 -0.751886131414107 -0.3381772902258626  0.3207486089300829 -0.7723419339177637 -0.3278655288326511  0.258244606867942 -0.7137626299577068 -0.3438312106190792  0.2379266722406395 -0.7340552728149246 -0.2038512599043594  0.2396517940894725 -0.7346042996063977 -0.2031427267608283  0.2148990921673077 -0.7147521386752571 -0.2228593386627652  -0.566731572617212 -0.4042219596974285 0.271372109727548  -0.5607657847472162 -0.4073173777931087 0.2496177047551852  -0.599383954390676 -0.4741051606489283 0.3122887031153486  0.1569621114457917 -0.4784683083462918 -0.1274929473273227  0.28741084021587 -0.6337004591566385 -0.2761259320872912  0.221418280963409 -0.6865749703167363 -0.2443093210226024  0.3710449052001111 -0.6307610339653552 -0.2653488875427753  0.8514594128880949 -0.4680162881070656 -0.2078996701246497  0.845545500133301 -0.4701925848737267 -0.2018692480634517  0.4482162975569622 -0.3301608007196419 -0.1994328177440499  0.3979364194726567 -0.3515677837942244 -0.1682556352613697  0.4521672460813057 -0.3308361171905357 -0.2068757688032557  0.5255654615574381 -0.274459857142506 -0.2119286305540711  0.5256138920044793 -0.2675216463700544 -0.2103938045936347  0.5108515762363409 -0.2795850810308791 -0.2218558134154197  0.6023879634067908 0.09180586905729129 0.06748942853767632  0.5992299129614046 0.1081055393386149 0.04664899821230838  0.600374328037092 0.08640214966079288 0.07048399106428016  0.6118767009487824 0.1031899945081682 -0.02728854132783874  0.6990397326545197 0.1428197757676684 -0.09262720194190338  0.3913593296033996 -0.3581536649480854 -0.1721953180149626  0.3795397696867467 -0.3772084321995847 -0.1734278981194243  -0.03505211197298808 -0.04005727092874575 0.05352526782688759  -0.02033515833984022 -0.03581843337827202 0.05100695263715221  -0.03968862566361456 -0.04198521594779402 0.051481658536693  0.2898376585128253 -0.2001084272407208 0.4567311965478774  0.3013295719667761 -0.1990846424931563 0.444607127770297  0.2870086518959161 -0.2029482202283922 0.4595819052641177  0.3762352046340008 -0.168249549185418 0.4387946340846275  0.4108578879078028 -0.07775589445167091 0.395050423358108  0.2859870336440536 -0.7463087198795811 -0.1503971036612846  0.3647938920193069 -0.8250616567685792 -0.2766647427120835  -0.1229562207684657 -0.1051680254632625 0.04284119180410594  -0.1539261768569631 -0.1267678196317504 0.07488745850028296  -0.1178121796746542 -0.1031492546022267 0.04307080774098975  -0.07053113536276648 -0.5282521363080547 0.03236898789436443  -0.07734045722903696 -0.5234685999938031 0.03639301735764722  -0.03251120744547906 -0.5188739060805917 0.0041601253555094  0.09973670419948796 -0.4761889807870243 -0.0256656303628276  0.02501429051974632 -0.4576600469769806 -0.01768360648236963  0.1479005607656713 -0.4935120681494664 -0.1075747202136783  0.0211170528981505 -0.4569005029605266 -0.02021885031390681  -0.1591618043609032 -0.1268175381779399 0.07407792463117352  0.2220891778709439 -0.5321679644006978 0.3705600414455515  0.2238456999754349 -0.5378795321134618 0.3730274151632078  0.2147689380468854 -0.5149327199355058 0.3662761626307849  -0.1360349623434532 -0.6665393818278661 -0.01503045889089594  -0.1108197906729477 -0.659848583769851 -0.04825861520047522  -0.1895947916498206 -0.6668085662090742 -0.008531402424917081  -0.08549631009202564 -0.6836862289623745 -0.05968379407757768  -0.4843832029183164 -0.4084599392029744 0.2454983144426389  -0.4272421773973791 -0.3874123686744567 0.2432971456903438  -0.3994792469117107 -0.37743028492614 0.2193896244135419  -0.4034397045046264 -0.3310918926087706 0.2087863196287746  0.5624641369315575 0.4057527808057911 -0.1412857060962047  0.5814548188422398 0.4149193954746748 -0.1423846671704563  0.5268731154627615 0.3807808402393106 -0.1085049539686885  0.1806454418095237 -0.6547956153360168 -0.3501984539930144  0.2169071444092096 -0.6871383663644806 -0.2389884660239543  0.144439337648986 -0.659592444410994 -0.3515924453781618  0.2589412947256634 -0.6680201113339215 -0.3464846999197906  0.2584323250745859 -0.6676634176827311 -0.3476394333203195  0.2132431130929598 -0.6894090656621706 -0.2338519378141907  -0.3603104878094616 -0.6061451405435452 0.1039294802440024  -0.349970610291267 -0.6136179712373768 0.1052028099696722  -0.3918712699995105 -0.6123315024486604 0.1410535343397784  -0.4024572505644265 -0.5272561303017225 0.1458744162139731  -0.4003209472637502 -0.5219997232882533 0.14293794530621  -0.4064631459554231 -0.5498431612037941 0.1524954598485655  0.4202133678840735 0.347241661027886 -0.01381007491360061  0.4066942802771994 0.3350790471932575 -0.02457809403052677  0.4362152357012907 0.3358536193188167 -0.02789859150651485  0.1072090646805125 -0.1067231752578812 0.6463679548248115  0.1237044684464692 -0.106715853887505 0.6305131035602162  0.08125001224051151 -0.1502247341590245 0.6480918685695655  0.1291494049063824 -0.1062372329749723 0.6297633537193054  -0.1678110410330793 0.2328832844805712 0.1402689071772656  -0.2193324995902461 0.2211303699896995 0.199242479351468  -0.09015641130661153 0.246692467459306 0.1463617735907131  0.2538906762433565 -0.3639460149714696 -0.1586323962266294  0.2752375008979475 -0.3819414016781164 -0.1631809412792075  0.250564731349754 -0.3629165789217459 -0.1519066618044552  0.209538516003443 -0.3825440890085429 -0.1473965428163734  0.1049747803505512 -0.2815062055361388 -0.1764160884246174  0.101102201218099 -0.270587906733145 -0.2374191607379437  0.1182635286023232 -0.305887421867493 -0.1427100146931123  0.1051595251048788 -0.2656943810785009 -0.2404461128322605  0.1031247631596079 -0.2648901272922222 -0.2411132471168405  0.06167807097322631 -0.01488554075677667 0.05416896110959178  0.05170520120509241 -0.01715680600498559 0.04650825590573102  0.08972011672705078 0.08045917923479871 0.08669365747919462  0.1828681670957661 -0.06577212298904411 0.171255835104649  0.2493068348904211 -0.06223046682243109 0.1173900745991265  0.1802094801475047 -0.07782725692788406 0.1822644113249357  0.249786978866068 -0.0625253850646225 0.115281558318367  0.2595856890917496 -0.04731197791333447 0.07047151236120597  0.2396108182942653 0.3041685807494699 0.05369581264424488  0.2513584712938463 0.3098208228212372 0.05977123854942449  0.2155681707140755 0.2997024053210663 0.05587224722264385  0.3572964437302268 0.267616001372915 0.02679610023477122  0.3527612779720148 0.23190445260734 0.02340057345211772  0.4008720463730921 0.3401336496920931 -0.0231836714973892  -0.3810317705736476 0.13720017807919 0.2491163901482184  -0.3916702633773448 0.1266905540867431 0.2780326247271999  -0.3462277351723452 0.2145754942826027 0.2357043604596437  -0.3446293580302512 -0.2292796957947542 0.1571776891079101  -0.3418389703961214 -0.227080696570094 0.1588404101816678  -0.3465110098716315 -0.2299880967775467 0.1564076161685412  -0.3331890670310456 -0.204291439363186 0.1712369800866304  0.08105631015107626 -0.1553824592353845 0.6455234648341185  0.08104076333700373 -0.1991847959728942 0.6452201332537214  -0.1049226993423256 -0.2984430070462142 0.7208165305442371  -0.09599328292929905 -0.2984921690240526 0.6774454964731434  -0.1071700154785602 -0.2972796830664838 0.741634758596326  0.2161033702994686 -0.08013819934949043 0.3843174151088988  0.2231550981740443 -0.08298842856466025 0.3803385801182004  0.2110950257193533 -0.07240355250301141 0.3891495699594241  0.2325546650425483 -0.09003431117043389 0.375971517079399  0.401382227047143 -0.06557715337439583 0.3871265802080092  0.1367372129642201 -0.1838065530947158 0.2820497927622364  0.1351193159952324 -0.1604549115320818 0.2124334387245884  0.105422329110288 -0.1921622840365272 0.3009683957072843  0.1379461807783941 -0.1002411173819007 0.1883390895490391  0.1364961658323893 -0.1283679560161796 0.1967173246826442  0.08157456147513392 -0.2021572652847825 0.6522595639669765  -0.06305983074638953 -0.2651243004899048 0.8061421755076954  0.08144575794939984 -0.2024269428406817 0.6505587645911663  -0.07891306131283549 -0.2748849441787065 0.7984111680416847  0.5010842061743075 -0.6933870203718453 0.3725210555582859  0.472139198159139 -0.6344069277970603 0.3284494556825909  0.503902944543993 -0.711491203305481 0.3499424786392915  0.4708582653351828 -0.6339828159352998 0.3282402641935316  0.288828226757231 -0.7495117679116697 -0.1475496186475602  0.3167680105850674 -0.7968692397510164 -0.1220160477114116  0.4552496941079135 -0.8603861428364543 0.0647209520713084  0.4453814514806437 -0.8673148568096197 0.04520639937151937  0.5699767301324252 -0.7311376702347103 0.3453894132547395  -0.197675109079609 -0.4894602684977889 0.03659920500467894  -0.2019329833368425 -0.1191350044897705 0.08719082602069562  -0.2345465478861589 -0.1468130703141547 0.1129846965425388  -0.1850537289832672 -0.1232252910211653 0.07943467262879421  0.2199659152072734 -0.5695124563319954 0.4079945178294231  0.1929651975463862 -0.6161471921178607 0.4307858029623181  0.2241133383792301 -0.5393201831729262 0.373924362752795  0.1950566008170332 -0.6128937353732129 0.442494626039579  0.009157663905110879 -0.02358683693863824 0.0481936417180644  -0.02590703402146002 -0.2584287947345991 0.49376383697321  -0.02233799374605397 -0.2793371710721445 0.5304038682042819  0.003395861203333001 -0.2646930257435093 0.4455620330362524  -0.02201336633494086 -0.2788634150629512 0.5340804746921105  0.1424253986955096 -0.2501317219936178 0.5962899077239655  0.1146731819006997 -0.246163448449175 0.6222542442475932  0.09464275010842409 -0.2277763082630888 0.6375614703514231  -0.3039588347839009 -0.6606067509556566 0.03162290832027119  -0.03409584385512999 -0.6925657962536208 -0.07397155525868408  0.3466821649039363 -0.8443513767514276 -0.2465078932402371  0.3479116794814415 -0.8646647576259485 -0.2396204203711954  0.3498426716487427 -0.8662971396149844 -0.2331710659544003  0.3525177946653923 -0.8700281140809961 -0.2337499769520679  0.3920569812778721 -0.8898313396370573 -0.2170752083346027  0.4695912090515935 -0.8452356800774571 -0.1248153230689145  0.4637795726377567 -0.8611570246261915 -0.1407108956378243  0.4728252613480294 -0.8392121077975224 -0.1208457843169899  0.4536747432280535 -0.3283163465751058 -0.2095210075872058  -0.3653596429554154 -0.2636090960682651 0.1840696602561738  -0.3996522932851795 -0.3244456423987475 0.2109491982670989  0.7591284075647698 -0.444466845282817 -0.2347292151729766  0.7998983565433664 -0.4616328483224745 -0.2086502931617817  0.757189433439154 -0.44271456625337 -0.2379376696381409  0.5824756491895533 0.4149712307179876 -0.1431881432117957  0.5770394205836558 0.4036863369082956 -0.106246283543751  0.5578059880002075 0.3914929828111344 -0.09366260898063013  0.6808296359612015 0.390508810859252 -0.1332034205221224  0.8493545944842041 0.393417648286515 -0.2637462832603832  0.8492823684503729 0.393731335415033 -0.2638977116666246  0.8490386277508728 0.3931257736282181 -0.2624011566066422  -0.3593688293311089 -0.5233597595958123 0.09558909890063066  -0.3081495483387954 -0.4977596678303299 0.09555256095150007  -0.2972550102579398 -0.4870800458433486 0.08647513071274228  -0.2459694883709173 -0.4707438195836361 0.05985268419346428  -0.4067885372218751 -0.5513254160348032 0.1577660317259305  -0.46335939371585 -0.6334068099322393 0.2213596996650383  -0.4607665103844957 -0.6331323957704682 0.220757355432525  -0.4734080811174506 -0.6205845466386519 0.2296432581625618  -0.4590674835631132 -0.6328810862326846 0.2191843173623812  -0.1907793934851217 -0.6709209948943174 -0.005402009608950445  -0.2200352192245939 -0.6610849869646694 0.0187792531805971  -0.2225939669875674 -0.6568048231023256 0.01926389822660338  -0.2681853354159187 -0.6523843523149894 0.02633195915068458  0.2791993033539596 0.3109673844938474 0.05426169813303054  0.2544290666812128 0.3091432380100368 0.06093996507313369  0.0507064579386375 0.01398007075318769 0.4684711340395475  0.06305329979858432 0.0127638213176556 0.4710591298696594  0.03072902336472168 0.0130393995178783 0.4719590905797339  0.7291791761518429 0.1805188294654395 0.1929769166274976  0.7367122496591555 0.1999465117301864 0.1901021693336652  0.7311613290808846 0.1802716930759411 0.2001354268147806  0.2190012569260061 -0.06592859235131782 0.5779845076995369  0.09960177025330617 -0.01408506400117052 0.4532870904448441  0.1340720424819316 -0.0303423239866549 0.4374464240128754  -0.0202281957689328 -0.250605808931116 -0.3244488675049058  -0.02831643819180434 -0.243341438019525 -0.3493814587193916  0.007530331554827407 -0.2509281426076461 -0.2843947911101491  0.3925580505384953 0.274319016730676 -0.5335098736259738  0.3809853277035741 0.2644643292098471 -0.5202038617725745  0.3991332528593949 0.2747643111389201 -0.5396455009148639  -0.2406983976380933 -0.1520160304657149 0.1122706884175616  -0.2804915731639824 -0.1491290262323442 0.1393349602025704  -0.2775409787633933 0.2391241157818789 0.234602019650328  -0.2829034252279555 0.24419913859908 0.2344425761144469  0.4468366947505644 0.3462608810523797 0.7537123894650868  0.4988692664203165 0.3753850202017413 0.7432584284896921  0.4184285955279428 0.2975838746931775 0.745087563448416  0.2454170803441447 0.2206652752640182 0.6623942514612048  0.3818091069671964 0.2255663657893931 0.7315812131395526  0.2482786337912291 0.2130405034422324 0.6551577289340715  0.4190060926637025 0.2935465084430601 0.7433749286471532  0.4190436741382349 0.2941834712337813 0.7433265143488292  0.1148386514336268 0.2890316215668803 0.08932151021898047  0.2037350016032874 0.2953552137133202 0.065602792719132  0.108624948513728 0.2783468482287696 0.08685105072991052  0.2076872000383375 0.3015507621849664 0.0634001738867257  0.8103125730962427 -0.2800333206520944 -0.2871479211060596  0.7891423845613819 -0.2659216572096926 -0.2348155675374252  0.8182070280488334 -0.2893103690068504 -0.3224145486879546  0.7814722612826276 -0.2651114214818965 -0.2327359125679512  0.5950528327364613 0.08022057949795867 0.08951038159852817  0.5912171221521912 0.07454914213400718 0.09317743221313549  0.5963328711192553 -0.009822719677881177 0.1584410319110932  0.5901759013145805 -0.005903921400949301 0.1877181034707839  0.5865891357609095 0.008353703734151268 0.1492845335787804  0.4355180883393244 -0.8718558910135289 0.04164473436898074  0.5037852665378554 -0.03315610455448089 0.2911831805440869  0.5180248826044261 -0.02741978788355606 0.2874088372399832  0.4735852935221905 -0.06435212833701208 0.3274293684974732  0.3800565654569345 0.1731005753326534 -0.3462179005971622  0.3568661753482006 0.1227916549320139 -0.3298918457443231  0.3674746271159191 0.187517602625457 -0.3634242277307808  0.3576776407019552 0.12077983669139 -0.3299112933755416  0.3696781518899761 0.2159793607974339 -0.4112362895528676  0.3340927415705501 0.08222955194051132 -0.2990108139222682  0.3502018987711596 0.04394828955737468 -0.2593052848516005  0.2865586038674895 -0.04899137391880119 0.04958931965685884  0.2589487394361073 -0.04871285777029604 0.07037941964850725  0.3480409531277814 -0.06412603725610806 -0.1320025825435016  0.3532549839889745 -0.0589240087727073 -0.1336342568856618  0.2697149089075894 0.2211193166074255 0.04518103391890323  -0.4031010163907073 0.1263889209879258 0.2850927138724945  -0.4219065411442822 0.1345214306187602 0.306442834897242  -0.4667392373430629 0.08918922535620978 0.3811749084326849  -0.4827421081273311 0.08697175324388837 0.3987758412201801  0.4210943387464912 0.08958060307651632 0.4906803538532004  0.4215455590205268 0.1000826602615923 0.4705876708098837  0.3347751791083718 -0.008578208110380153 0.5273570117885462  0.4275778434343043 0.09257285246919669 0.4567414179676738  0.3227314818643777 -0.008320934222229869 0.5331823228773911  -0.1825273743919451 0.152458940149899 0.6235433960643797  -0.2140485433496568 0.1168170075189683 0.5673603532523526  -0.121142152542239 0.1257720561740853 0.6211482177951829  -0.021692895838639 -0.2703448010046146 0.538875720619538  -0.1072394084609943 -0.2918962598695261 0.6158285022400379  -0.1016759255218532 -0.2820562043817325 0.6478658876383693  0.08128307416282664 -0.1993092990181761 0.6441876734788576  -0.08814142395068958 -0.2872241181953205 0.803858386242101  -0.0922432202099608 -0.291807801618426 0.8024124200438202  0.1813081924369882 -0.3986936968261279 0.1485540507161564  0.1861574850118547 -0.3932069582241218 0.1728481456394059  0.1980047624816965 -0.3972445114273487 0.09192695411738534  0.3379214757120828 -0.5930176026598699 0.3955787664767552  0.3627793369662415 -0.5889989580977697 0.4025265498764388  0.2957777762149539 -0.5820222390259959 0.3601987169976271  0.3759005841229368 -0.627340741913802 0.3682134565705257  0.205768740863893 -0.4584288905489918 0.2194014228223819  0.2003979271269146 -0.4688527067844253 0.2335013490346269  0.2308501361347813 -0.7457105663702078 0.5295095207318802  0.199290201553892 -0.7315541772624411 0.5219203483885081  0.2190737505830984 -0.7788224251992795 0.5377215264717031  0.4315966286878935 -0.614456770431602 0.332929890926282  0.2649469424010515 -0.7736386260969454 0.0463883919840634  0.3144933423212913 -0.7837730921343118 0.02522097480800201  0.2629911263880466 -0.7729727777903196 0.04315446968415625  0.2055240367026823 -0.684057440837908 0.03030794489709723  0.1944771373158299 -0.6813916052490218 0.03339104344435456  0.2363941273165839 -0.7573881431366004 0.03620157096009946  0.03344709199788753 0.2845426240412245 0.07748896778258994  0.05622901200770389 0.2913474980469293 0.06843319270887957  0.003291959617932359 0.2355028606819736 0.1244859916702081  0.08288694786473694 0.2766940275031061 0.07761558780277704  -0.4522079898445736 -0.5627035011569196 0.2068311434140241  -0.5889771869020602 -0.5560010479958614 0.2107202675837322  -0.4093488975228431 -0.5537877589514139 0.1669266175626369  -0.5804846483876696 -0.5633293241251596 0.2130842194129219  -0.6154376052895372 -0.5336608564539133 0.2162898018642854  -0.625880084765416 -0.5260547416806772 0.2502627031692465  -0.6272208637866522 -0.5257297856374319 0.2717322716681707  0.4422584934295827 -0.8350877792896739 -0.06945237206930395  0.474863286064465 -0.8385315867460558 -0.1176795808778876  0.4355469755614068 -0.8370378834625075 -0.05800969439591321  0.9275817788044951 -0.1459292555057626 0.3222425424981127  0.9238290272093552 -0.1396954741172192 0.3195058456874105  0.3834442618117993 -0.5886437711924015 0.6883143790728607  0.4160515708501535 -0.6022523333588619 0.6812300974459314  0.3511301886367179 -0.6152863044306978 0.6896499621700528  0.5965709461460873 0.4525444163580298 -0.1490297829916377  0.7111658925338934 0.4605731396096417 -0.1476028680882813  -0.3134179872197033 -0.3037774256757768 0.4650091135165222  -0.2563783467163247 -0.3127214854390477 0.4872492327884463  -0.3221338339057044 -0.3010919151534249 0.4663153029851425  -0.2502400709641787 -0.3084159729692347 0.4844188503811924  -0.4485851587164361 -0.247085116304067 0.5389340934771569  -0.3722702443660776 -0.2838077202664646 0.4803792696309227  -0.4488831399515974 -0.2464398653172536 0.5391934889942732  0.005608306720090168 -0.6791224785017153 -0.08043291970920907  0.2248276152543775 -0.5397325049871478 0.3742532750247672  0.2231900990292654 -0.5360047738031262 0.371494584673181  0.2473358209857756 -0.5610376815456768 0.3786338695034666  0.2202424061637588 -0.5182190168984423 0.3541194260557764  -0.006127329699996756 -0.5729731894731478 0.4030564505093009  -0.009208313056092987 -0.5753986893389197 0.4018218726047443  0.02301865770133363 -0.5559318193978865 0.3689063540229128  -0.04812103308982676 -0.5766880367603168 0.4016158249694265  0.04342541566306346 -0.5257785053546921 0.3626121602354433  -0.0802233139671101 -0.04852753071954656 0.03274782640571193  -0.07940537273950944 -0.04774436792941589 0.03421679622232357  -0.185267706946963 -0.03131697116935477 0.4143072851618448  -0.1959566383437378 -0.02178176301752553 0.4154018139060958  -0.05048991140792491 -0.0156293028727518 0.4751031893611907  -0.2397753293412291 -0.00168526736516967 0.4436141470924498  -0.2757538593030275 -0.002255264406585453 0.4414471126065732  -0.2814087993818151 0.0009275421141136525 0.4404327703443014  0.007189787883190427 -0.2358388968593343 0.4204439157433406  0.1635722885360815 -0.03109463594306353 0.4252266147510959  0.2081345640141782 -0.06614459226652906 0.392598583819542  0.1831549558405339 -0.0448829605117914 0.3874122914555186  0.1751423458681635 -0.03851642601732569 0.3923438039136232  0.5367815946123011 -0.3809514996330536 -0.2630239402670588  0.5408962930755706 -0.3945921079420336 -0.2589567545023302  0.5305366152631922 -0.3733952751645352 -0.2767033769135525  0.5861135815239 -0.415514900186065 -0.2357323033308023  0.5928346972449392 -0.4127114404288664 -0.2332646186055444  0.6518703507097799 -0.4181722755669371 -0.2386573668219456  0.6533873961070171 -0.4173400005924812 -0.238590943411187  0.6666142550420436 -0.4255820443464765 -0.246726869884113  0.6555565357029596 -0.2367113346484244 -0.2169447498421819  0.4319134217922427 -0.6991982491126671 -0.3102922846480438  0.4340958439523532 -0.7063021580832816 -0.3094261042857568  0.426300932061517 -0.6697820551357444 -0.2930394580805964  -0.05909213765399531 -0.2597610797160386 -0.3706312953071843  -0.03712681137756687 -0.2393193707488264 -0.352021191903185  -0.0885046720341543 -0.270838572968699 -0.4162577267158538  0.008592552750723639 -0.5717399827773495 -0.5280448906684466  0.01064251304865297 -0.5810772599024348 -0.5230587109067136  -0.002005404931715483 -0.5394379542794966 -0.5364269097252929  -0.2035766014258898 -0.4851601812105552 0.04716780111663682  -0.1992340859999567 -0.4891137805439648 0.0392160827788797  -0.2192125824399894 -0.479057801739541 0.0539551048471357  0.8273443307275167 -0.2814428710241409 -0.3245644282881492  0.5000588017423289 0.3752757564946405 -0.09307247568457232  0.5076146841888345 0.3794271198141693 -0.09527974072510285  -0.7903324660129691 -0.4900719067068425 0.3114563968478673  -0.7351499079931678 -0.5073782470615558 0.3420037461207552  -0.7312264167201113 -0.5096547950849947 0.3403931281836777  -0.6959110332198789 -0.5122031502946114 0.3296640872052252  0.008781492214426756 0.1277417691820565 0.6291597519577542  0.07364629200993519 0.1710591213129607 0.6485032487197395  0.004074053375473341 0.1278456161417268 0.6293250779063524  0.1655631929943037 0.1811776070710699 0.5925632464944788  0.1683226884787564 0.1836967490288135 0.5903036963065833  0.6880972571762678 -0.1219353467834154 0.3067343176889593  0.682483856032672 -0.1190373004147235 0.3040657670042842  0.7623375997354401 -0.1189413512716437 0.3064474832820581  0.6449275217230338 -0.07811572372189921 0.329170729092477  0.5656462589060263 -0.02656050435328022 0.2301041119132671  0.5227934402238997 -0.02948543266823695 0.2830404350137455  0.4537999212217564 -0.08160980953092162 0.3506331687556509  0.4501452318441885 -0.07999559724396106 0.3540998201358615  0.5351096372990551 -0.0312490948017654 0.2987769497784272  0.5878076696326875 -0.05173158588753594 0.2955769171539696  0.6373497382318278 -0.07594060541471746 0.3297798154067216  0.2203199992302005 -0.06567151008827334 0.5774957509555519  0.2349998813720623 -0.606815741449808 -0.3809193743247574  0.2111203667664232 -0.5767221821783424 -0.4000959531261915  0.2385615811848386 -0.6405759050764755 -0.3763023074697347  0.177681141074633 -0.5169841595082977 -0.4457137836234875  0.08215389164941667 -0.2648660527212803 -0.2424463115723898  0.02157702643531582 -0.2549583698663916 -0.2682870796205753  0.2401298199534095 0.1598335718244798 0.6567813119202701  0.5386107647110773 0.1256257928673782 0.4112528648795311  0.4046957310711988 -0.06553007959207094 0.3714748390114385  0.4162632666749501 -0.07791919416380987 0.370544701208826  0.1196193544943276 0.08881713284135818 0.0696061311037571  0.1313473762796858 0.1094987147041437 0.04530931993877785  -0.08278546046483279 0.2547286750415008 0.1423975819301888  -0.07311497979536843 0.2480414199974599 0.1345343343940992  -0.03611098762705203 0.234198581106866 0.1283411645504743  -0.01176315752070416 0.2312554117502896 0.118686072019496  0.1318408468463972 0.1099456134403874 0.04501519610926297  0.4586894167247465 -0.5995360157877975 0.6221353053131289  0.4805771182477495 -0.5833752882116299 0.6186782216045207  0.413916000206666 -0.8404706935209243 -0.04404281962140649  0.3445640060924203 0.03104991713081463 -0.2598173182596124  0.3305007506565742 -0.02416920186214203 -0.1558938021373027  0.3299898662881739 -0.02131193916932694 -0.1614115972449817  0.3597852314532325 0.2466558627961202 -0.4439476759213727  0.363373134275924 0.2559527663101634 -0.4524285243129322  0.3628463754241893 0.2632492490566988 -0.4679018945137491  0.3429894330964703 0.02883911015501606 -0.2567806803283219  0.5893978402772526 0.04383402406130037 0.1328422414189713  0.1363360005096259 0.1269478788226811 0.03938393242403295  0.7505509081747002 0.212149185909298 0.1673257265949039  0.758316277833337 0.2217087403827963 0.1533254163477595  0.7833831292124619 0.2390932054938991 0.1368092798131639  -0.3328194246982495 -0.2045643707832589 0.1714146108516157  -0.2157145005619142 0.117289947380059 0.5640267794750365  -0.2640971085351911 0.1028263063123511 0.5646510043767289  0.0845432746155886 -0.2188340603172682 0.3325230535388944  -0.3133702380222907 0.1188592352446538 0.5396806500223138  -0.3152901726088764 0.1179963968002956 0.541240297778236  -0.1076888453260721 -0.2983898703821707 0.7453680650023475  -0.1113643071154139 -0.2981206662172754 0.7502866035404452  -0.09188720042210446 -0.2922936372014578 0.802899289555526  -0.1689468464993986 -0.2722142948163863 0.7985389099114624  -0.1752584892598147 -0.272219420655413 0.8001406550435688  -0.1751183140899446 -0.2741237669094039 0.781465588332523  -0.1693035007417236 -0.2794612514094481 0.8072340291010418  -0.1409669405603662 -0.2865999760126439 0.7651471496837401  0.1999797275288085 -0.6212770707269123 0.4469980867477336  0.2128771118844032 -0.7216108435116164 0.4891487628519048  0.3213646828119265 -0.7893841717755911 0.0291884713210488  0.4032615137582207 -0.838690346845046 -0.06504737079809426  0.3874487064906149 -0.843978004175795 -0.08966582386902686  0.4036482905090245 -0.8410508046517221 -0.04584256466164961  0.3821448048228916 -0.8416117457884341 -0.09337156310225248  0.3734414259327331 -0.8363451687785166 -0.09793109043161798  0.3494838736125085 -0.6150897167020071 0.6887410996479276  0.3312309559706468 -0.6237596752429286 0.6948252679563338  0.2738061058672847 -0.5923910850293924 0.6862108851249784  -0.1996291329997447 -0.4190948671490099 0.4661696152858129  -0.1944712757995306 -0.4282787824172101 0.4625731532765271  -0.1489568154988471 -0.4943578157001229 0.4184371582634268  0.1457651555530357 -0.6618217955661135 -0.3578984727970897  0.04772143467363438 -0.5933902524545747 -0.424906565043626  0.1291007453575198 -0.6556570662684298 -0.3995226987977432  0.02453653815114416 -0.6144860488091808 -0.4707148356899201  0.2450780657624874 -0.4958789025625961 0.2894114434881216  0.2352404758723197 -0.4931776189318771 0.3100887267858142  0.2359827248323142 -0.4927694656515973 0.3119752570371703  -0.1133650235302136 -0.5168348367305325 0.4337874395600025  -0.1180856285984779 -0.5120222503703012 0.4309183181669075  -0.287089143224543 0.005502697404376242 0.4470678697947532  -0.3610410503115835 -0.002499866777339536 0.4840597814571187  -0.2934276577795047 0.007714873105319733 0.4523569547201671  -0.3782244408802661 0.006704720292171068 0.5134080209069674  -0.4977374094749071 0.02985313912281225 0.4149577254623394  -0.4996521620601845 0.0275529417912023 0.4149079651512713  -0.4971318500068393 0.04045685615645121 0.4120476896902681  0.003455302410711097 -0.22861725781848 0.4018073331207972  0.001056573937761679 -0.2223172064239903 0.3998545321635317  0.005085531758455011 -0.2192663836790741 0.3931489939811553  0.0282946481486578 -0.2035032101172234 0.3698851730481457  0.07469680481018375 -0.2267256403756149 0.3349843500307608  -0.4055943626093733 -0.6235972034198994 0.1470232697850292  -0.39924913882742 -0.6144195942523721 0.1430440065486339  0.1098393792859704 -0.6317096472020121 -0.01468406989473538  0.509289161600289 -0.8020363649523429 -0.2765785913314363  0.4341441362260027 -0.7197635062109712 -0.3108499447847257  0.4338749383400538 -0.7130374161182238 -0.3090588531886137  0.5216127631331742 -0.3612236636070792 -0.2797654432744763  0.51304812535457 -0.3580351915847477 -0.2828019332302942  0.4204296554976929 -0.3733056390279239 -0.3162108976794186  0.2584834706801931 -0.6673841556431548 -0.3479450558894778  0.2382668776367687 -0.6411714145213687 -0.3738666976408995  0.472854386345969 -0.3311144603780947 -0.21958071659886  -0.2001743400987784 -0.265842782227187 -0.6535386092845873  -0.1789202067414786 -0.2871988724032362 -0.6257874874496768  -0.2516954282702296 -0.2804631786342682 -0.7347156367373832  -0.1081477529850508 -0.2754736228178779 -0.4376814151096111  0.7023148151212908 0.4156113916904094 -0.1404203208826524  0.6807126829197837 0.3918221574201369 -0.1370256681224451  0.7079421059023761 0.420932216646294 -0.1389711736865261  0.7374996434908524 0.219700857576662 -0.1186352510086522  0.7081575219700823 0.1850577929964666 -0.1007074070793923  0.7496864296891378 0.2270334160532786 -0.119557778418981  0.6981413654387743 0.1488850710074066 -0.09971173059603795  0.8283694264997081 0.237820929737319 -0.1439345633367555  -0.09854060248819649 0.1367688532687276 0.607875186855897  -0.03007188255736477 -0.02242129514206073 0.469006276531637  -0.0250938739814844 -0.01972003008003606 0.4639935776024263  0.5353694876310723 0.1287114114380582 0.3710519619341479  0.7743691627054126 -0.1358912600403035 0.2936297046568077  0.7725180610947151 -0.1340192405979087 0.2904181937952297  0.5380765123867364 0.1254815705236109 0.3694681792395675  0.569169048827143 0.1240366169628858 0.3431208923139391  0.7111591766998828 0.1804849324484269 0.2045537454495694  0.5971388540600764 0.1055270578686034 0.2655619735889707  0.5696745676674742 0.1250383678370212 0.3424579814702114  0.6376024767560043 -0.07712512046941809 0.3299843776282372  0.2940101168889302 -0.3943814321651234 -0.4408458410513524  0.3278329510890213 -0.4120149350780673 -0.4355584484070154  0.2945249197289393 -0.3939127406288158 -0.4496647587066079  0.1642137216463253 -0.5046366647895735 -0.4656953321127997  0.3666011926580045 -0.4097977442750468 -0.3857250593603475  0.3677155169216004 -0.3948566149569929 -0.3552576160081691  0.03037652369090843 -0.5974413314347253 -0.5038615341922966  0.01825071711422554 -0.2557913206708048 -0.2680035521125948  -0.302433267106583 0.2295213058788425 0.226109619271073  0.3090584609538495 -0.01314509458477145 0.5198447377691552  0.2215585611615609 -0.06646571255303739 0.5778763062371042  0.2268379087065743 -0.06767284439111539 0.5712162040955607  0.2370806803917935 -0.06582125823997258 0.5520096811188961  0.2335734951114085 -0.06642414385320181 0.5521147927942106  0.673693588300309 -0.2394635142396598 -0.2304511517579019  0.7688284699434603 -0.2647410223928665 -0.2330947501418621  0.6694662680879198 -0.2328780255241128 -0.2290358875360177  -0.5244595983400798 -0.005237558665712003 0.4262030430130149  -0.5270647211151221 -0.007449744615063156 0.4270798694654082  0.327918097788436 -0.7868737627519174 0.02789626619459719  0.3908558103292343 -0.8282344012995048 -0.03079581274523986  0.4327337452965721 -0.8278666593933606 0.009069305041847791  0.4262210910872727 -0.8431364513627834 -0.0401783921486569  0.326502736970505 0.01531084593088512 -0.2030028076779655  0.2683302164878055 0.2117587897298788 0.05234553610467749  0.2380687418199907 0.1757939220604645 0.06903484159369491  0.268826198844012 0.21336550987016 0.05230988645571052  0.2117083797187539 0.1705974222499293 0.08968364356502977  0.1740173815748275 0.1600494398500392 0.06100597714687428  0.1642844841815504 0.1572300799758067 0.05181656896627043  -0.3306822412891131 0.1026976868663694 0.5487807802616821  0.02065228059922318 -0.4138821550700074 0.7508541028487048  0.02930314742213348 -0.4561688583339745 0.7442374054868849  0.006179419429820726 -0.4125087326384134 0.7713842448145437  0.06165204338707814 -0.4724211153024612 0.7356644675188975  0.06203480168756804 -0.473012198177747 0.7362201754187284  0.1337340937141739 -0.5010388330569209 0.7740105671375291  -0.09107235072889666 -0.2940560805137715 0.8033026717674666  -0.1361261417291126 -0.2944596080916326 0.816655271836061  -0.07102354068100182 -0.3120064093980202 0.8152452101371864  0.1455392883700839 -0.3326368832973672 -0.003074614325629291  0.1455834335426945 -0.3241560737663856 -0.1057595054780568  0.1649427641670843 -0.352318030384295 0.007986115068710241  0.1390885843233675 -0.3273325558027466 -0.124312363819564  0.1285754419738265 -0.3103463664746185 -0.1343564072760933  0.2380249738833516 -0.7586288988278945 0.03747787776961949  -0.6396649884288315 -0.4730725487808837 0.3216462760353007  -0.6316293826473641 -0.5283862958816683 0.2726830089929545  -0.6250226303301428 -0.4660728311971561 0.3260168971092003  -0.1495489232720381 -0.4957580702255562 0.4180180051525891  0.1293711500276691 -0.6712275603000286 -0.09298726615155666  0.1756027055653357 -0.6670116095932603 -0.1511651474895565  0.111036991852926 -0.669768860809644 -0.08845509081427747  0.1867183634162458 -0.6635432703171565 -0.1796897101801331  0.2112405179540691 -0.6848327493000071 -0.2267304311260545  0.2149102854549325 -0.7105075369052014 -0.2262428768287341  0.1942690985028453 -0.6640921452166229 -0.1974714836751515  0.4265348055651049 -0.6679958340295534 -0.2884947555494082  0.4193032812764049 -0.6618549448008015 -0.2824003352442708  0.378014490161843 -0.6330117948502307 -0.2624603249859288  0.7161001848115126 -0.4274506739468852 -0.2384792768866038  0.7560984441055093 -0.4400157346409094 -0.2368972051347409  -0.09623129054081631 -0.4670194564929412 -0.6394629142875347  -0.114037462716763 -0.4529177768814299 -0.6495627401351146  -0.08969248517286464 -0.4781175086427233 -0.626329912963465  -0.2331131016227705 -0.2498449178980937 -0.823959946217139  -0.2162517432030546 -0.1909154795536047 -0.9130570425521219  -0.2409636090377228 -0.2531950117771982 -0.8201997098675741  -0.1121514654882693 -0.2735650405935384 -0.4446310140250637  -0.1341973891289799 -0.4521610755937357 -0.6367845738202578  -0.169831691842283 -0.4690925921152495 -0.6532765225615443  -0.2517374313960584 -0.4126917829999145 -0.6949821541400703  0.855043006035099 0.4290575818979154 -0.2762938676207566  0.4146550257366315 0.2770937956864714 -0.6159174040258633  0.4202740874833118 0.2779082546909394 -0.6020806180747766  0.4137570245942159 0.2762219987057286 -0.6244650106616487  0.4192173645894784 0.2790338675570356 -0.6016977920116902  0.7377820709493372 0.4377614477439598 -0.1009651868146224  0.7125350271552802 0.4621862758859105 -0.1504952626862187  0.757878339979256 0.5211625657166816 -0.2022526413729527  0.7976535463916887 0.5047049523757766 -0.2355130745663023  0.8049381877831253 0.3160151016405915 -0.2085459030361241  0.8535701154919646 0.4616747706141615 -0.08295943426256087  0.815325373856677 0.4339071602839352 -0.06425632375705315  0.8162862111724366 0.4253011978402403 -0.06941058598622557  0.8749190455864162 0.4157267096253224 -0.1243393246350824  0.8135828948892893 0.430871880154645 -0.0642954628571296  0.8073484088334695 0.301014699832394 -0.2047252295566855  0.8045416163436288 0.3151772603185293 -0.2085932455426139  0.8284788350634945 0.2378889101477063 -0.1440224237630673  0.8782249343811817 0.4252807502177633 -0.1223540712453208  0.8896624406918212 0.4128827717601303 -0.1590839059335269  -0.06008925273125244 0.1555611574928448 0.6171293367100319  -0.01505595397968749 0.1570837634890697 0.6272980258595968  0.002743486910083699 0.1300306095259572 0.6304133741634449  0.1701221329716793 -0.4849545414455409 -0.4971210895579908  -0.03888446165791561 -0.5345026987505131 -0.5750472612643004  -0.06648904906095077 -0.5217779381425709 -0.5867160110382919  -0.007541804763383278 -0.3490834956001607 -0.6011937238359883  -0.02484151194714083 -0.3337990864025295 -0.6111075854902145  0.04950292403890307 -0.3879070518890442 -0.5968396202131359  -0.2109492971889772 -0.1837902274973284 -0.9195371950434975  -0.1856701733607201 -0.1744611944893638 -0.9039036102669558  -0.5340074910125796 -0.01880240284955402 0.4217310812634062  -0.57304128162791 -0.04048179697098419 0.4085296718691737  -0.6333573745211711 -0.06073825635925864 0.4120889235688157  -0.5513347162156371 -0.03930522496441893 0.411516242411897  -0.6850155180252865 -0.09431713635085323 0.4264668649051369  -0.6955768148053076 -0.08819689319446032 0.4338824258154292  -0.7086451570117279 -0.08697115167764133 0.4820418123116652  -0.7375850434977788 -0.09198423522689503 0.4759545030434192  0.8190214006814358 0.3690256029290446 0.01833165731311548  0.8191778793379769 0.369204789533671 0.01815517217317088  0.8341372053782318 0.3808790475626069 0.04629913230451112  0.8364555738031872 0.3216474068154075 0.053230210857289  0.8232963017863769 0.2694312569947905 0.07929984291435248  0.7971132707868253 0.24348615145673 0.1180437359800216  -0.4305659765579087 0.03088149686941118 0.5104924504418923  -0.3529862042800856 0.05566839980467737 0.5449856878761521  -0.4243761130014518 0.04064326339644513 0.5171187836609401  0.2129914637652732 -0.5698395762251575 0.7356416622710316  -0.001326912744182902 -0.4084546061837717 0.7716291983922161  -0.2317046389534511 -0.2753875641845344 0.8847289509716018  -0.2375658730626197 -0.2820335817366968 0.9197357194443347  -0.2514236698072426 -0.2843565241520949 0.9057027241189864  -0.2391351075925835 -0.2808393426174883 0.9173774264129007  0.152553826000808 -0.3708568237529705 0.03288017508181598  0.1567280126137485 -0.3709804389665369 0.04072683961892373  0.3477407388666939 -0.8066441691862514 -0.1350932785307775  0.3531746794694632 -0.8058146171941367 -0.1337731793848254  0.07278872813545445 -0.6588459658032533 -0.05728399561580255  0.0895855693347921 -0.6577054275075023 -0.07136039340087885  0.03895613988839293 -0.6557034668906018 -0.08312682716175629  -0.7030812838258571 -0.09184570332779318 0.4882708619142231  -0.7078042426770443 -0.08784974511006699 0.4838545370046313  -0.6874811777872282 -0.1036726074903125 0.4944323658543564  -0.8157393733871026 -0.1024295222963268 0.4611752352302992  0.3687915776501562 -0.3966137842781599 -0.3350077312386972  -0.135176613899502 -0.2678277886076628 -0.4597299506260989  -0.1654296923237084 -0.2707821649531287 -0.4884915291847711  -0.0267792273480594 -0.3309963535869418 -0.6148880392712328  -0.2586670310968484 -0.2700574385657364 -0.8126433209263276  -0.2647387236506306 -0.2760073553434895 -0.8018596268227148  -0.2546218796248428 -0.4041179840844861 -0.6967134244853708  -0.2544951668324205 -0.4048495348749286 -0.6966232261351992  -0.2613325509691728 -0.3898122311803872 -0.7148616151679509  0.2921107234947692 -0.3916665363880004 -0.4501592619993711  0.2756026661560668 -0.3877219143297155 -0.4572130151101667  0.2700164772410784 -0.3430583175571059 -0.4876909713406824  0.2357257331796228 -0.3339316401697782 -0.5241953250313949  0.08054259984195281 -0.2286493075287665 -0.5979806789179642  0.1434812296453021 -0.2768922270770862 -0.5709627891428785  0.07353863068311753 -0.2279606617951728 -0.6159455942987203  0.1428614832428701 -0.2884264404439216 -0.5547891577090504  0.1615723161088924 -0.2909018273299832 -0.538224955668291  0.1484581794524224 -0.3002251657755634 -0.5478749112558481  0.1431946953690738 -0.2909867253141755 -0.5540482779444182  -0.5025449142531122 -0.02544793481410065 0.5178096580698421  -0.5171523057252121 -0.03624660310326598 0.5309758445980748  -0.4565012169888093 0.02200715621030749 0.5166317529903233  -0.5222661123883927 -0.03695685610768554 0.5290008256120952  -0.5291371224668077 -0.04679278363364706 0.5302909394941802  -0.5862219180096921 -0.124194134820061 0.5274944773573661  -0.4603245775338362 -0.2213032684207617 0.5784387849274498  -0.5306614227923147 -0.1867263621786571 0.5898440090442476  -0.531317035020701 -0.1831467920532465 0.5898611340047959  -0.5518954171097996 -0.1775504281348379 0.5781593716009678  -0.4517588895803161 0.02334674189289777 0.5167627081821426  -0.4880473987064796 0.06188759200130514 0.402121861911789  -0.4924928403906953 0.05539396274916783 0.4032966979306471  0.1708492539831717 -0.5733713498041215 0.7532887737843276  0.1896899401882679 -0.5706075267008509 0.7391258514754852  0.1881495343019141 -0.5698356291395615 0.7389379925013797  -0.177920736604173 -0.2902268419983324 -0.6165698886365216  -0.006241544039859666 -0.3160891377884469 -0.6840267912518627  -0.265626320125745 -0.3913055506469032 -0.7322992287863627  -0.2564822113653176 -0.3391100385803786 -0.7956986966241467  -0.2544847107260835 -0.3343004483664294 -0.7960265749063377  -0.2596460622794994 -0.2716059030498323 -0.7819487164367731  -0.2558117065536624 -0.2749638684735324 -0.7703609080257264  -0.003275100473907425 -0.3106220912142005 -0.6877068002555246  0.4354711058778454 0.2656089935661252 -0.6885589857660527  0.168946297055836 -0.4285217124728853 -0.5036018046388642  0.1494860690796003 -0.430290812277713 -0.5135966718338882  0.501893876363906 0.1982820631062173 -0.8304751739971888  0.4700420850138075 0.1908056569968601 -0.8033625680177153  0.4367164031155645 0.2091054559917862 -0.7838821269463968  0.4140645835645036 0.2249263522868701 -0.7260740350879871  0.4123314748080827 0.2360855384905369 -0.7186445236299148  -0.6423526059617027 -0.1134797360446331 0.5216246099177037  -0.5811060403928737 -0.1299875607872064 0.5439565755495998  -0.17054377000117 -0.3010503847346024 -0.6018057683366761  -0.1753530485015224 -0.2978549494558618 -0.6099047642041133  -0.1704341106617472 -0.301002812005416 -0.6016687067866463  -0.1679895482845572 -0.2773377776326195 -0.4962874460472672  -0.06326187591722007 -0.3212705609158342 -0.733921503568959  -0.01181683853702096 -0.1907283124257873 -0.6757077087238708  -0.01476566936309176 -0.1862040174619104 -0.6777105492976458  0.02557456025966841 -0.2248279210468453 -0.6645734483764474  -0.01772348120149842 -0.1877013785246788 -0.6784892522384421  -0.0863097146646926 -0.2155377419218827 -0.7403381316002726  -0.1029319925068248 -0.2279740569181499 -0.7522184666026281  -0.1007410436007028 -0.2342053769385604 -0.7463519710701152  -0.1021149745481262 -0.2241687893417799 -0.7776233170872129  0.117291122615994 -0.4075491056641507 -0.5138252070142476  0.06398182763228299 -0.385322077574933 -0.592890800017615  0.1180187011018807 -0.4085580010377597 -0.5139268549549559  0.04993962812196386 -0.3875059124426762 -0.5957422856267337  0.1490182045516718 -0.4290517146761493 -0.51361389772947  0.03575083519054013 -0.2323012642460456 -0.6511869134656612  -0.1344291590278549 -0.2117743603538798 -0.7867771724397694  -0.1749650985114622 -0.2193828738003996 -0.8201001927715627  -0.1800158453420028 -0.2120067729137651 -0.8255703975263476  -0.2113523610049892 -0.2529220564361396 -0.9440130416820155  -0.7897114476066281 -0.537582664679079 0.2952299411570319  -0.8370450066307378 -0.1211824003474999 0.5333577530331461  -0.2446094497145283 -0.336481907088692 0.9092558239089329  0.860675936834171 0.5003313716401826 -0.09330305625902935  0.8826588596838693 -0.3258063234885099 -0.338472431663898  0.860204322402201 0.4357591945429742 -0.2645041740536973  0.8218159803228433 0.5292408200031182 -0.2105294728260893  0.5402404488763884 0.3588602482972811 0.761025354104482  0.9341318675981386 -0.141420709245952 0.3274108228724051  0.4550052310885176 -0.8757536284128837 -0.1607041754396988  0.454134441935219 -0.8862572826914688 0.09005524706823735  0.2283806909308345 -0.7951889200692354 0.5615308107388925  0.5564160111319747 -0.7521753200035509 0.3527513579471213  0.4852926546660062 -0.8320595382479912 -0.2682684739915599  0.9124538295417397 0.3829915995857019 -0.1433368536050626  0.8738529422701464 -0.4295539012370435 -0.2272982428833196  0.5126890240860287 -0.6245589823976201 0.5889618426419193  0.5052001785739054 0.2351436138497482 -0.8302290469711203  </DataArray>
</Points>
<Cells>
<DataArray  type="UInt32"  Name="connectivity"  format="ascii">0 1  0 2  3 4  3 5  6 7  6 8  7 9  1 10  11 12  11 13  14 15  14 16  17 18  17 19  4 20  21 22  21 23  24 25  26 27  26 28  29 30  29 31  32 33  32 34  33 35  35 36  27 37  37 38  39 40  39 41  42 43  42 44  43 45  10 44  45 46  15 47  12 48  49 50  49 51  52 53  52 54  55 56  55 57  56 58  20 57  50 59  60 61  60 62  63 64  63 65  64 66  18 67  67 68  68 69  69 70  71 72  71 73  74 75  74 76  13 77  77 78  22 75  75 79  80 81  80 82  83 84  83 85  86 87  86 88  89 90  89 91  90 92  93 94  93 95  96 97  96 98  5 99  100 101  100 102  101 103  103 104  105 106  105 107  108 109  108 110  109 111  111 112  113 114  113 115  87 116  116 117  87 118  119 120  119 121  122 123  122 124  123 125  91 126  126 127  128 129  128 130  131 132  131 133  132 134  134 135  136 137  136 138  110 139  139 140  137 140  141 142  141 143  142 144  145 146  145 147  146 148  47 149  149 150  151 152  147 153  53 154  9 58  9 54  155 156  155 157  158 159  158 160  159 161  106 162  40 162  163 164  163 165  164 166  2 167  167 168  168 169  81 170  66 171  48 172  172 173  173 174  174 175  175 176  177 178  177 179  28 180  38 97  124 181  70 182  183 184  183 185  72 186  187 188  187 189  190 191  190 192  84 193  193 194  194 195  195 196  85 197  198 199  198 200  199 201  65 202  202 203  203 204  204 205  170 205  118 206  206 207  114 207  208 209  208 210  211 212  211 213  92 214  209 215  215 216  217 218  217 219  220 221  220 222  156 223  223 224  94 225  225 226  227 228  227 229  230 231  230 232  231 233  229 234  233 234  235 236  235 237  115 238  236 238  239 240  239 241  240 242  34 243  243 244  245 246  245 247  152 248  249 250  249 251  252 253  252 254  253 255  254 256  255 257  257 258  259 260  259 261  112 260  261 262  117 263  120 264  264 265  265 266  266 267  268 269  268 270  269 271  270 272  273 274  273 275  166 276  276 277  277 278  129 278  169 279  127 279  127 143  144 280  280 281  282 283  282 284  98 99  285 286  285 287  286 288  283 289  289 290  291 292  291 293  148 294  288 294  295 296  295 297  298 299  298 300  301 302  301 303  302 304  305 306  305 307  200 308  309 310  306 309  310 311  306 308  176 178  312 313  312 314  179 313  315 316  317 318  317 319  186 320  320 321  322 323  322 324  323 325  326 327  326 328  171 329  59 157  61 330  61 160  61 331  330 332  331 333  287 332  334 335  334 336  335 337  336 338  51 339  339 340  41 340  341 342  341 343  342 344  344 345  345 346  165 347  216 348  133 349  349 350  348 351  350 351  197 307  352 353  352 354  353 355  355 356  356 357  357 358  358 359  30 360  361 362  361 363  364 365  364 366  218 365  367 368  367 369  370 371  370 372  154 371  196 372  241 373  25 184  88 374  374 375  73 375  73 188  376 377  377 378  378 379  380 381  380 382  381 383  383 384  385 386  385 387  386 388  246 389  250 390  389 390  251 391  391 392  251 393  393 394  394 395  214 396  397 398  397 399  398 400  104 401  401 402  232 403  384 403  271 404  135 405  405 406  46 406  392 406  107 407  407 408  95 409  409 410  410 411  303 412  411 412  408 413  318 414  414 415  314 416  258 417  262 418  418 419  256 420  420 421  421 422  221 422  417 423  244 424  247 424  413 425  212 426  426 427  427 428  181 182  224 429  125 429  274 430  430 431  138 432  431 433  433 434  130 435  435 436  281 437  438 439  438 440  439 441  436 442  440 442  161 443  443 444  292 444  296 445  446 447  446 448  447 449  449 450  319 451  451 452  452 453  324 327  454 455  325 454  455 456  76 457  458 459  458 460  290 461  461 462  62 338  333 463  462 463  337 464  464 465  346 466  467 468  467 469  466 468  470 471  470 472  347 473  473 474  474 475  475 476  476 477  432 477  201 478  478 479  82 479  299 480  8 480  481 482  362 483  482 483  354 484  484 485  485 486  78 487  487 488  457 459  399 488  180 489  31 489  490 491  490 492  366 493  494 495  494 496  189 495  497 498  497 499  498 500  499 501  36 500  275 502  343 503  503 504  210 504  404 505  316 506  387 507  506 507  505 508  508 509  213 510  510 511  511 512  509 512  395 513  388 513  514 515  514 516  400 517  515 518  518 519  368 520  460 520  402 521  219 521  121 522  226 522  272 523  396 524  524 525  523 526  525 527  526 527  237 304  528 529  528 530  242 529  360 530  471 531  531 532  445 533  533 534  535 536  248 535  416 536  416 448  416 534  423 537  419 537  538 539  538 540  263 540  539 541  541 542  542 543  434 544  545 546  545 547  546 548  548 549  549 550  437 551  437 552  551 553  554 555  554 556  555 557  557 558  102 558  297 559  300 559  379 560  379 561  19 562  560 562  311 561  456 563  465 563  564 565  564 566  565 567  79 568  79 569  568 570  567 570  16 569  363 571  571 572  572 573  23 573  574 575  359 574  185 575  576 577  576 578  579 580  579 581  493 582  577 583  583 584  584 585  191 586  587 588  587 589  222 590  588 590  496 591  321 592  592 593  593 594  192 595  596 597  598 599  598 600  601 602  601 603  595 602  599 604  604 605  501 603  502 606  606 607  607 608  382 608  517 609  369 610  610 611  612 613  612 614  578 611  580 615  615 616  532 617  618 619  618 620  619 621  621 622  622 623  623 624  625 626  625 627  600 626  597 600  591 600  627 628  628 629  629 630  428 630  469 631  544 632  632 633  453 634  553 635  547 635  441 636  552 637  636 638  637 639  638 639  556 640  284 641  640 641  150 642  450 643  642 643  644 645  644 646  566 645  329 646  647 648  647 649  624 648  624 650  486 651  519 651  582 652  652 653  613 654  581 655  655 656  657 658  657 659  585 658  516 660  660 661  661 662  662 663  664 665  664 666  665 667  663 668  668 669  667 670  669 670  671 672  671 673  672 674  674 675  675 676  677 678  328 677  678 679  679 680  617 620  425 543  631 633  631 681  673 681  267 682  682 683  472 683  550 684  634 685  684 686  685 686  491 687  654 688  659 689  689 690  690 691  656 691  656 692  492 693  692 693  688 694  589 695  609 696  696 697  698 699  699 700  700 701  701 702  695 702  649 703  676 703  676 704  680 704  705 706  705 707  687 706  707 708  653 708  694 709  710 711  710 712  711 713  713 714  714 715  709 716  715 716  715 717  718 719  718 720  719 721  614 721  697 722  720 722  666 723  712 723  717 724  724 725  725 726  616 726  580 727  376 728  650 729  638 730  596 731  373 732  586 733  594 734  228 735  315 736  178 737  151 738  293 739  153 740  481 741  605 742  24 743  415 744  698 745  </DataArray>
<DataArray  type="UInt32"  Name="offsets"  format="ascii">2 4 6 8 10 12 14 16 18 20 22 24 26 28 30 32 34 36 38 40 42 44 46 48 50 52 54 56 58 60 62 64 66 68 70 72 74 76 78 80 82 84 86 88 90 92 94 96 98 100 102 104 106 108 110 112 114 116 118 120 122 124 126 128 130 132 134 136 138 140 142 144 146 148 150 152 154 156 158 160 162 164 166 168 170 172 174 176 178 180 182 184 186 188 190 192 194 196 198 200 202 204 206 208 210 212 214 216 218 220 222 224 226 228 230 232 234 236 238 240 242 244 246 248 250 252 254 256 258 260 262 264 266 268 270 272 274 276 278 280 282 284 286 288 290 292 294 296 298 300 302 304 306 308 310 312 314 316 318 320 322 324 326 328 330 332 334 336 338 340 342 344 346 348 350 352 354 356 358 360 362 364 366 368 370 372 374 376 378 380 382 384 386 388 390 392 394 396 398 400 402 404 406 408 410 412 414 416 418 420 422 424 426 428 430 432 434 436 438 440 442 444 446 448 450 452 454 456 458 460 462 464 466 468 470 472 474 476 478 480 482 484 486 488 490 492 494 496 498 500 502 504 506 508 510 512 514 516 518 520 522 524 526 528 530 532 534 536 538 540 542 544 546 548 550 552 554 556 558 560 562 564 566 568 570 572 574 576 578 580 582 584 586 588 590 592 594 596 598 600 602 604 606 608 610 612 614 616 618 620 622 624 626 628 630 632 634 636 638 640 642 644 646 648 650 652 654 656 658 660 662 664 666 668 670 672 674 676 678 680 682 684 686 688 690 692 694 696 698 700 702 704 706 708 710 712 714 716 718 720 722 724 726 728 730 732 734 736 738 740 742 744 746 748 750 752 754 756 758 760 762 764 766 768 770 772 774 776 778 780 782 784 786 788 790 792 794 796 798 800 802 804 806 808 810 812 814 816 818 820 822 824 826 828 830 832 834 836 838 840 842 844 846 848 850 852 854 856 858 860 862 864 866 868 870 872 874 876 878 880 882 884 886 888 890 892 894 896 898 900 902 904 906 908 910 912 914 916 918 920 922 924 926 928 930 932 934 936 938 940 942 944 946 948 950 952 954 956 958 960 962 964 966 968 970 972 974 976 978 980 982 984 986 988 990 992 994 996 998 1000 1002 1004 1006 1008 1010 1012 1014 1016 1018 1020 1022 1024 1026 1028 1030 1032 1034 1036 1038 1040 1042 1044 1046 1048 1050 1052 1054 1056 1058 1060 1062 1064 1066 1068 1070 1072 1074 1076 1078 1080 1082 1084 1086 1088 1090 1092 1094 1096 1098 1100 1102 1104 1106 1108 1110 1112 1114 1116 1118 1120 1122 1124 1126 1128 1130 1132 1134 1136 1138 1140 1142 1144 1146 1148 1150 1152 1154 1156 1158 1160 1162 1164 1166 1168 1170 1172 1174 1176 1178 1180 1182 1184 1186 1188 1190 1192 1194 1196 1198 1200 1202 1204 1206 1208 1210 1212 1214 1216 1218 1220 1222 1224 1226 1228 1230 1232 1234 1236 1238 1240 1242 1244 1246 1248 1250 1252 1254 1256 1258 1260 1262 1264 1266 1268 1270 1272 1274 1276 1278 1280 1282 1284 1286 1288 1290 1292 1294 1296 1298 1300 1302 1304 1306 1308 1310 1312 1314 1316 1318 1320 1322 1324 1326 1328 1330 1332 1334 1336 1338 1340 1342 1344 1346 1348 1350 1352 1354 1356 1358 1360 1362 1364 1366 1368 1370 1372 1374 1376 1378 1380 1382 1384 1386 1388 1390 1392 1394 1396 1398 1400 1402 1404 1406 1408 1410 1412 1414 1416 1418 1420 1422 1424 1426 1428 1430 1432 1434 1436 1438 1440 1442 1444 1446 1448 1450 1452 1454 1456 1458 1460 1462 1464 1466 1468 1470 1472 1474 1476 1478 1480 1482 1484 1486 1488 1490 1492 1494 1496 1498 </DataArray>
<DataArray  type="UInt8"  Name="types"  format="ascii">3 3 3 3 3 3 3 3 3 3 3 3 3 3 3 3 3 3 3 3 3 3 3 3 3 3 3 3 3 3 3 3 3 3 3 3 3 3 3 3 3 3 3 3 3 3 3 3 3 3 3 3 3 3 3 3 3 3 3 3 3 3 3 3 3 3 3 3 3 3 3 3 3 3 3 3 3 3 3 3 3 3 3 3 3 3 3 3 3 3 3 3 3 3 3 3 3 3 3 3 3 3 3 3 3 3 3 3 3 3 3 3 3 3 3 3 3 3 3 3 3 3 3 3 3 3 3 3 3 3 3 3 3 3 3 3 3 3 3 3 3 3 3 3 3 3 3 3 3 3 3 3 3 3 3 3 3 3 3 3 3 3 3 3 3 3 3 3 3 3 3 3 3 3 3 3 3 3 3 3 3 3 3 3 3 3 3 3 3 3 3 3 3 3 3 3 3 3 3 3 3 3 3 3 3 3 3 3 3 3 3 3 3 3 3 3 3 3 3 3 3 3 3 3 3 3 3 3 3 3 3 3 3 3 3 3 3 3 3 3 3 3 3 3 3 3 3 3 3 3 3 3 3 3 3 3 3 3 3 3 3 3 3 3 3 3 3 3 3 3 3 3 3 3 3 3 3 3 3 3 3 3 3 3 3 3 3 3 3 3 3 3 3 3 3 3 3 3 3 3 3 3 3 3 3 3 3 3 3 3 3 3 3 3 3 3 3 3 3 3 3 3 3 3 3 3 3 3 3 3 3 3 3 3 3 3 3 3 3 3 3 3 3 3 3 3 3 3 3 3 3 3 3 3 3 3 3 3 3 3 3 3 3 3 3 3 3 3 3 3 3 3 3 3 3 3 3 3 3 3 3 3 3 3 3 3 3 3 3 3 3 3 3 3 3 3 3 3 3 3 3 3 3 3 3 3 3 3 3 3 3 3 3 3 3 3 3 3 3 3 3 3 3 3 3 3 3 3 3 3 3 3 3 3 3 3 3 3 3 3 3 3 3 3 3 3 3 3 3 3 3 3 3 3 3 3 3 3 3 3 3 3 3 3 3 3 3 3 3 3 3 3 3 3 3 3 3 3 3 3 3 3 3 3 3 3 3 3 3 3 3 3 3 3 3 3 3 3 3 3 3 3 3 3 3 3 3 3 3 3 3 3 3 3 3 3 3 3 3 3 3 3 3 3 3 3 3 3 3 3 3 3 3 3 3 3 3 3 3 3 3 3 3 3 3 3 3 3 3 3 3 3 3 3 3 3 3 3 3 3 3 3 3 3 3 3 3 3 3 3 3 3 3 3 3 3 3 3 3 3 3 3 3 3 3 3 3 3 3 3 3 3 3 3 3 3 3 3 3 3 3 3 3 3 3 3 3 3 3 3 3 3 3 3 3 3 3 3 3 3 3 3 3 3 3 3 3 3 3 3 3 3 3 3 3 3 3 3 3 3 3 3 3 3 3 3 3 3 3 3 3 3 3 3 3 3 3 3 3 3 3 3 3 3 3 3 3 3 3 3 3 3 3 3 3 3 3 3 3 3 3 3 3 3 3 3 3 3 3 3 3 3 3 3 3 3 3 3 3 3 3 3 3 3 3 3 3 3 3 3 3 3 3 3 3 3 3 3 3 3 3 3 3 3 3 3 3 3 3 3 3 3 3 3 3 3 3 3 3 3 3 3 3 3 3 3 3 3 3 </DataArray>
</Cells>
</Piece>
</UnstructuredGrid>
</VTKFile>