<?xml version="1.0"?>
<VTKFile type="UnstructuredGrid"  version="0.1"  >
<UnstructuredGrid>
<Piece  NumberOfPoints="8" NumberOfCells="6">
<Points>
<DataArray  type="Float64"  NumberOfComponents="3"  format="ascii">-0.9999767304892677 -0.9999385623092352 -0.999371056488246  0.9984145978868817 -0.9999385623092352 -0.999371056488246  -0.9999767304892677 0.999610288267603 -0.999371056488246  0.9984145978868817 0.999610288267603 -0.999371056488246  -0.9999767304892677 -0.9999385623092352 0.999949884555451  0.9984145978868817 -0.9999385623092352 0.999949884555451  -0.9999767304892677 0.999610288267603 0.999949884555451  0.9984145978868817 0.999610288267603 0.999949884555451  </DataArray>
</Points>
<Cells>
<DataArray  type="UInt32"  Name="connectivity"  format="ascii">0 1 3 7  0 1 5 7  0 4 5 7  0 2 3 7  0 4 6 7  0 2 6 7  </DataArray>
<DataArray  type="UInt32"  Name="offsets"  format="ascii">4 8 12 16 20 24 </DataArray>
<DataArray  type="UInt8"  Name="types"  format="ascii">10 10 10 10 10 10 </DataArray>
</Cells>
</Piece>
</UnstructuredGrid>
</VTKFile>