<?xml version="1.0"?>
<VTKFile type="UnstructuredGrid"  version="0.1"  >
<UnstructuredGrid>
<Piece  NumberOfPoints="372" NumberOfCells="374">
<Points>
<DataArray  type="Float64"  NumberOfComponents="3"  format="ascii">-0.1111026453254719 -0.66579573569866 -0.2842610412167844  -0.06921180965854375 -0.6807793423408292 -0.3040294346738589  -0.1718332175595254 -0.6255224611389268 -0.3063827449688555  -0.06380811181061105 -0.7124250922898482 -0.3240653189912741  -0.4207104991950497 -0.4276326030687606 -0.2083725213133576  -0.4198752065887635 -0.4277285220317039 -0.2048799388710939  -0.3970902664351705 -0.4331312369704098 -0.2642334592020639  0.1834952747393226 0.4191171974371415 -0.2684408078151066  0.1488076764695175 0.4283526995730582 -0.2485759832617388  0.2400910305439931 0.4671436175095749 -0.3012481210699667  0.2715156479903196 0.07318302193451144 0.06557805474538714  0.2816455959936143 0.08926253282184364 0.06782320186569127  0.2558164497173655 0.06538756058102263 0.0777710454214003  0.2623135022377255 -0.3095766150823045 0.3576580585846186  0.2890895078173511 -0.2732893256666709 0.2888671456761441  0.2624711888695223 -0.3331860914517241 0.3635786549817226  0.2633868494537975 -0.2520089051621574 0.2468200775899571  -0.4202244885560149 -0.4255043969851112 -0.2023324409073849  0.06221104004802101 -0.7859815287943044 -0.2352304720069133  0.06416572980961201 -0.7882334673924081 -0.2298161859284243  0.06098487608295694 -0.7861644453283452 -0.2383579681584044  0.1147188276421164 -0.8215976343205504 -0.1913267638915838  0.1055249960013091 -0.05311047669439757 -0.1226133833448388  0.1002272838375157 -0.05900299359235758 -0.121163275310184  0.09199190006783317 -0.0402796057567289 -0.1113132683695286  -0.1749268047072939 -0.5182044517367128 -0.2270561029546563  -0.253694983334619 -0.4876099383219809 -0.204556021248687  -0.1699270505096306 -0.5167460186969859 -0.2254703379447661  -0.2839556090744758 -0.476841547448433 -0.2507761426174294  -0.1486676765149422 -0.5047922603647226 -0.2341278668736698  -0.1269963162933678 -0.5114630290948208 -0.2502254672425769  0.3292993754717633 -0.1966888671930093 -0.05161056460684995  0.3831711302447565 -0.1876391465336705 -0.05375533015069069  0.3062459292690268 -0.2132543714696083 -0.05146675505987305  0.3830695676848324 -0.1874300970741562 -0.05406428331430312  0.4369603827239221 -0.1603906328069979 -0.03426838946532854  0.4336279315198762 -0.1756185813940213 0.001634892793885366  0.4527179456272954 -0.1524979526080321 0.004567701303374826  0.3602673929737752 -0.1844855717663835 0.0605306696498992  0.4590853396733661 -0.1346482107443524 -0.02744010115969375  0.1379326940250944 0.4207138494833795 -0.2281722346351636  0.1343691998233379 0.4267788467437919 -0.2207693552969676  0.05345538185897179 0.411198983371841 -0.1660154762798211  0.038606372925838 0.4003628452691278 -0.1618650543512848  0.03380445553897793 0.3976488998813817 -0.1535243119593061  0.264566096900116 0.4646571360826792 -0.3002364732839236  0.4648535736886815 0.4694271888157331 -0.2408400802783932  0.4683661000675505 0.4492393427127229 -0.2260071234311656  0.3444154118902062 0.5189956776770018 -0.3085746737605892  0.2938541998772264 0.4632274838592074 -0.3225854249156106  0.3068482859504622 0.4830647869015811 -0.2944463739356514  0.2962451580355482 0.4636430469354315 -0.3325223015372837  0.3430971351166907 0.5185655590996272 -0.3086487981846079  0.2792802123196087 -0.2079135457619696 -0.2185840977151276  0.2845938877061597 -0.2139361915528695 -0.2232672690043788  0.2202328289413981 -0.2689270677767697 -0.2136328682196603  0.19400156543452 -0.3652118191481759 0.4062440895382289  0.1963498317569676 -0.3697650922082866 0.4062171239424952  0.1811142299679213 -0.3653560590240472 0.3961535237597317  0.3389309465320682 0.1096944012634899 0.07188590746791201  0.3332564055090356 0.1076935791380976 0.07107471120093377  0.3747874927331857 0.1209139765448674 0.1021898632750713  0.3918503678291494 0.125313051276957 0.1332376419695855  0.4825208894484743 -0.1619050092107993 0.01854877414968334  0.4823610595840637 -0.124867297679692 -0.04670207339410542  0.4119090010365755 0.1532556423810202 0.1469432302985465  0.4124684354901306 0.1533238838770881 0.1472155449781046  0.447410055267376 0.1633968767202941 0.1175020486600976  0.225613006588043 -0.3812407982291536 0.3943773427875859  0.2251560099624661 -0.3815391523248157 0.394683611103599  0.3180843859127047 -0.3224008247176438 0.3895265063531984  0.3249692361272526 0.4601631374671215 -0.3659613238259414  0.3075311041061574 0.4531358342313719 -0.3559366979149966  0.3202546016354787 0.4555587255084925 -0.3808484350384727  -0.01280384836119446 0.3509251908234066 -0.147201261686734  -0.08717228794647026 0.324419174200756 -0.1401018661499436  -0.002110058069544132 0.3556282845859812 -0.1432358804832729  0.03345478279802145 0.3943579448067156 -0.150830166076537  -0.3841687147260113 -0.4349712494406398 -0.2299720378702608  -0.2974289979241636 -0.4846494446860304 -0.2554415264791405  -0.2818141088532602 -0.3332984904029592 -0.1710064830636625  -0.04450416305955725 -0.7129025513439773 -0.3099358586377547  -0.04253995360711709 -0.7192109099670611 -0.305957253758053  0.01404988501089541 -0.7749642600078542 -0.2896948642834206  0.194172503940506 -0.3689337629799536 0.4204491635714835  0.2030253713425514 -0.3726094069904554 0.4299364838744757  0.1973383995095694 -0.3816138234927887 0.4517408876504213  0.1520627713431857 -0.8255901385111908 -0.1648126789375715  0.153196387789433 -0.8321348039804733 -0.1481234522328163  -0.4304667559294241 -0.4302223081640807 -0.1484114439540332  -0.2376729202398953 -0.3901413436960192 0.07235577016790512  -0.223531452442154 -0.3933917294163065 0.08281114816157054  -0.2391570504039979 -0.3913763039756928 0.07179220703731957  -0.172589343713164 -0.3569121428962442 0.1428158227527047  -0.1663347986643962 -0.357565135732938 0.1508674230554041  -0.1347405429286423 -0.3936192005139675 0.1959075538858417  -0.1236504466090011 -0.3953698570552968 0.1964857064990757  0.03691279945339258 -0.1183075974943873 -0.1557823897747211  0.125226614702278 -0.04436520767057152 -0.07448098257976404  0.1441121286742087 0.004625672172118414 -0.02864761200087878  -0.2372820134796395 -0.4965742391369088 -0.3534378680133493  -0.2357030612684754 -0.494369006826279 -0.3576078722375119  -0.2172015569387631 -0.5847743941046039 -0.3631522849751208  -0.2884945680010778 -0.4590419790891525 -0.3362672774963673  -0.3102467398701955 -0.4470937786396474 -0.3576014273806758  -0.05126988171437639 -0.5091859076935835 -0.2490477430487084  0.3621603455759143 -0.1725998785593533 0.06923716815195173  0.3345552409882986 -0.1654543560933569 0.07093565646767824  0.249403986055718 -0.2465507980326672 0.2357312856322584  0.759958113991928 -0.1609123641683483 -0.4327950074318699  0.7528575243350396 -0.1647253024848378 -0.4293817141517288  0.7760035426434964 -0.1845153031133729 -0.4202075423543504  -0.1104372460005887 0.2605928001249358 -0.1137057517149006  -0.09150180422765301 0.323583360818802 -0.1357333679406847  -0.1816393189773705 0.2381022799945721 -0.1047418986856863  -0.1844185967468001 -0.6127714992836815 -0.3070250944847045  -0.1802692570851612 -0.6129260654666161 -0.3096514902895052  0.173028216481908 -0.3777734751806209 0.3848005761672537  0.5007117168495721 0.266427804198978 0.176787742601505  0.2912777093319391 -0.1604885677227894 0.05578974846618645  0.2390504932704796 -0.1459860491957779 0.04467678984555497  0.3017845488594798 -0.1650348865572402 0.06578106777310462  0.390903646338859 0.4080528254534492 -0.4409852151451197  0.4260562907162684 0.4219580933483529 -0.4705724486980954  -0.4320988549603088 -0.4419630755988467 -0.1430844281013113  0.007722980407016213 -0.5448665245009705 -0.2556708283987104  -0.0217834693460099 -0.5347594815449332 -0.2380195665903178  0.05223280827824661 -0.5346455648160474 -0.2769292952621507  -0.02558333308198117 -0.5388799994910615 -0.2483765765245969  0.2343702962555604 -0.3172985146701385 0.6533475365305556  0.242077440046039 -0.3223421947115538 0.6590377471667059  0.254750586650802 -0.3371543380951819 0.6555656883709805  0.1582885758328096 -0.8256112941129923 -0.1176728786679851  0.1624584791808218 -0.8270091230900605 -0.113169462409716  0.1569006888776968 -0.8406932354915148 -0.08866749621786008  -0.09665003219152596 -0.3804029779333218 0.1710346348880871  -0.07321822229721053 -0.375197881194662 0.1942453459120785  -0.07232093508803544 -0.3884006274819053 0.1329432510059643  0.05781674138895436 -0.3431613319054891 0.03348547464580277  0.09309883682236038 -0.3650607304042499 0.0426858678010853  0.004651859650027318 -0.3499796665886864 0.006513404351447004  0.3483705251583324 -0.4514022140525729 0.1628373336986811  0.3347576232071416 -0.4581549802951103 0.1488619468543826  0.3723035690566039 -0.4516649194576647 0.1804684983473223  0.3341020633389057 -0.4525432519748528 0.1417300585517915  0.2067062704626563 -0.2420041084943927 0.2252154702959767  0.03178087081398259 -0.3631268971334501 0.304020178715072  0.114489800714215 -0.3884467552802706 0.3664762157528779  0.02686621935664819 -0.3666980058663794 0.2767045390440213  0.1209135931525711 -0.3918099893165676 0.3648315950874741  0.0257558074891189 -0.478664140025168 -0.02574589407060078  0.09412973413294286 -0.5422255189442948 -0.05092011355557471  0.01780693457003365 -0.4757162403746699 -0.0163942710938329  0.09509429708817144 -0.5438968877718618 -0.05015458794230301  0.1085504228062238 -0.3618105575691098 0.04608172570722158  0.4670122692026435 -0.145927867498244 -0.3088850064061637  0.4167406289223275 -0.1861809662523584 -0.2756227986199586  0.4685598412239124 -0.1429679705891071 -0.3093805535758225  0.382116953176684 -0.1990495479798906 -0.2481523924133665  0.3904959459065948 -0.4653520404698194 0.1861579579616393  0.394931244822615 -0.4686877766146182 0.1923505283651664  0.2041383090698436 0.06012672677136528 0.04502145007403218  0.119153147149036 -0.084230033315424 0.05793775185519359  0.1291009599483645 -0.09504460182825966 0.0619503107268105  0.08274186965282271 -0.08783958145295374 0.04528943768166575  0.1305621631039081 -0.09451218502753168 0.06077043534111067  0.1347995673489449 -0.1027620770410495 0.05745620179225103  -0.06309192515744161 -0.509865239624092 -0.3157837465903357  -0.06514048638240587 -0.5071822581303029 -0.3143795746728024  -0.01753268013053846 -0.5587644692463448 -0.2971457272373494  -0.06289219286996064 -0.4818926077585826 -0.3298396553493663  -0.3925322643883146 -0.2671833683565162 -0.3288025646840666  -0.4011548336848562 -0.2434341589745685 -0.2985981900533684  -0.4680348334923717 -0.2407059709497726 -0.4205276647437496  -0.3970835098437846 -0.2370791293329061 -0.2954108814429768  -0.3294989554888564 -0.2068782161067748 -0.202095738699857  -0.3247688801603649 -0.2146479192652735 -0.1902610375222751  -0.3599406113849415 -0.4371153897993131 -0.3822262447711289  -0.2379447185886535 -0.3384212185169015 -0.2935303696644243  -0.3523549638081194 -0.3443382490357755 -0.356847622269879  -0.2356536098412442 -0.3468993909016381 -0.2942333262800833  -0.3527376174855624 -0.3306711001965038 -0.3662875692977058  -0.2339605149876586 -0.3494575731527277 -0.2968255977916291  -0.1614291698255257 -0.4013588577453673 -0.3275621673718169  0.1194938975520008 -0.555546168515609 -0.03487200004841173  0.1778718782304747 -0.644129277495992 -0.04346866048796814  0.1192775226998853 -0.555481822601776 -0.0350847041138935  0.1818411261408703 -0.6456891891798632 -0.04310107006729667  0.1084244550051709 -0.5482125954227162 -0.04702412582557745  0.5744253762169902 -0.0649317071147677 -0.3327851120063361  0.5317002764752885 -0.08584994644011579 -0.3118788947748595  0.64169922946406 -0.09600266800046442 -0.3639505680491132  0.5305582399899446 -0.08798244669767716 -0.3112769860103024  0.5228594513075824 -0.09387180240243988 -0.3132405522031036  0.6746847654030212 -0.08882866504456627 -0.3724375775299736  0.6482213219356496 -0.0930177674832387 -0.3749066490596078  0.8003631223169667 -0.1927509943305734 -0.4841693795765801  -0.4409973816947217 -0.2581566729039323 -0.4381799419538023  -0.2532077088579 -0.2269637694631922 -0.1201251622717472  -0.268898651047134 -0.2551647681284099 -0.1529028248358775  -0.243858202740664 -0.2269399914312957 -0.1221124227032692  0.530811601041378 -0.1487886900692633 -0.008768892372532693  0.5260548920323835 -0.1563276525483262 0.004929855387208262  0.1512724454297733 -0.2598159593463709 0.201846437969082  0.1502506434838112 -0.2598922582894198 0.2017621605782277  0.1035620709480261 -0.1669862432252631 0.0501812349341285  0.0971686523443672 -0.186695109388755 0.07912790359588859  0.1034931804910162 -0.1699677467249347 0.04805318084105703  0.1766709231932806 -0.1202483260240325 0.04056872384260495  0.1225689169070969 -0.2364292095255242 0.160351805548015  0.2225684133133464 -0.1392125233720173 0.04107179937891761  0.2249398968554568 -0.1445419900697932 0.03968498664660941  0.2328133031929113 -0.1583975558264761 0.0319777877073688  0.3036461467976974 -0.1676929620919612 0.06553750747331749  -0.1848782764310818 0.2344857824294808 -0.09990847417977967  -0.2118509380863464 0.2417608645201381 -0.09051244563561979  -0.2402287248683092 0.2515483917487114 -0.02980847319853311  -0.2725678517809286 0.2087229550524961 -0.003457542321703193  -0.2859340156127511 -0.4084710210541892 0.01754255105102683  -0.3396421359765887 -0.4953514615902252 -0.08756679173400919  -0.2552739388857516 -0.4074842949008497 0.05036628589214754  -0.2609697602671835 -0.3193041668326509 -0.1739702385479876  -0.2724246576755754 -0.3190256161006794 -0.174635389968234  -0.2456662864999704 -0.3207886830993562 -0.1803285999481364  0.04614869353439446 -0.783469092309972 -0.2534152755203151  0.005953249470214597 -0.5527730700483626 -0.2744415541492867  -0.01666972415149967 -0.558943197160537 -0.2933314977496181  0.008432886553050481 -0.5628052457911471 -0.2753702047655272  0.1234410400910378 -0.5277905184243503 -0.2822776738069035  0.1303880173784687 -0.5377708275061228 -0.2835691987042869  0.1469211676469481 -0.5727411823282026 -0.2874537853815221  -0.09367182721269557 -0.4680323120791227 -0.3385611275053261  0.5004880962216811 -0.4537193880645609 0.2883746082013766  0.5029192702990797 -0.4526012421269073 0.2862824617813705  0.4555190477210397 -0.4954438410184669 0.2632643222596187  0.2382518078696846 -0.9248343162817597 -0.04904877462029923  -0.1450893741055738 -0.4019349622965138 0.019479626197715  -0.1787367958371939 -0.3934560307240333 -0.01492729253948727  -0.06218612552610173 -0.3736186385585758 0.04241259656178578  -0.0700389598493337 -0.4740583159207578 0.01407106201651588  -0.01905251390968093 -0.3232288264578346 0.009532098281541487  -0.03311818356980954 -0.3105509943429091 -0.01632946772103032  -0.1517573458169232 -0.3474378882796926 -0.05371655308753277  -0.1350433248991916 -0.3362345773339076 -0.05599828895679676  -0.03800399233110895 -0.3084015729178929 -0.02247954823606728  0.2877668383412807 -0.4021750191141257 0.119177862855275  0.286080625957951 -0.3882664670238321 0.1140563634008342  0.3254712100865111 -0.4386886610103963 0.1313096880125492  0.280062979217808 -0.3869727028736045 0.1066622711674715  0.001026118839285932 -0.3732309621691461 0.2751355673673238  -0.009225172371990401 -0.3853919962772417 0.2713843718144404  -0.04556929266632197 -0.3904447365003356 0.2456038715152966  -0.08478800244191788 -0.3850953646433153 0.2079944996810592  -0.08110880745377376 -0.3804546774658392 0.2154979579865231  -0.1125631110525191 -0.3953776082354407 0.1946298828419365  0.5182687001980247 -0.464533221720054 0.3020306727498513  0.08970400878985867 -0.1768464543098587 0.03122918604887873  0.0449354853608392 -0.1904018434966298 0.006529564492016068  0.09792028888967776 -0.1774157087447357 0.03801629787799752  0.005406881231072833 -0.02840410520418604 0.04660206213588797  -0.03721783279199567 -0.04068105075168235 0.05389585862789062  0.1513577035760141 -0.002254646125193424 0.01040313679199198  0.1453560930268603 -0.002775639089505608 0.009720298433493906  -0.3643780619950076 -0.3779873923744663 -0.3710734725965815  -0.3646192213019384 -0.3755021884532871 -0.3732858463842946  -0.4466581524959579 -0.274176604582648 -0.4417762303278989  -0.3622951776532695 -0.2909745527242198 -0.3756359228871852  0.1371827940378708 -0.328319984867821 -0.1290836314349407  0.1374098293268004 -0.3281535964320161 -0.1291078105789324  0.1165596895748237 -0.3273795278778537 -0.1360094919722187  0.1577866144762044 -0.3335581077744647 -0.1346532420459065  0.3355297258182539 -0.7444100413350784 -0.03796826897160065  0.3290923362741077 -0.7126654377045424 -0.05307025129688907  0.312246401748432 -0.6851599596245604 -0.06098065654768826  0.206226957234784 -0.6617225999434629 -0.02562417761442062  0.2061027472050805 -0.6614629725640979 -0.02556514235761022  -0.03758949668847125 -0.04081046199034764 0.05385238129928177  -0.07094924135880364 -0.03964778687645784 0.04940346409575658  -0.08300883806138015 -0.01922709459799736 0.04693982543723112  -0.342349576438535 -0.4855162359313989 -0.09861683764267949  -0.3425034896107919 -0.4845944024780584 -0.09625890468215462  0.2971566024819145 -0.1984756947768279 -0.2139415641004754  0.3229144763596883 -0.1905874253080487 -0.2270163336218159  0.3738170095561592 -0.1957527966848803 -0.2396075659785454  -0.2408004464142827 -0.3165162046895915 -0.1810196237400296  -0.2210799655665339 -0.3032380646304819 -0.179198970447483  -0.2163600684663166 -0.3032550869946655 -0.1751062891269691  0.1543925537642485 -0.561366637929342 -0.2805289796623437  0.1678755483099475 -0.5886785603423623 -0.2833114565388506  0.2269702320070194 -0.6287260296343857 -0.3098310094018498  0.2154997188379173 -0.6192054168675134 -0.2943242226967097  -0.1526640264941473 -0.4009394462249342 -0.3219607843454454  -0.1499765886882802 -0.4072719236877759 -0.3214617697505309  -0.06357851216805593 -0.3629026846245096 0.06895821787206854  -0.06086904676129484 -0.4947694480050804 0.008249792791629323  -0.06368356239269257 -0.484196720928417 0.007389758862739515  0.4612222447729994 -0.4942740649522441 0.2539496499657073  0.1754613943799485 -0.3123708429974026 -0.1615814617382302  0.1350351394237826 -0.3166622706439605 -0.1414633702772595  0.1342376879102518 -0.3166472690659755 -0.1410111198675462  0.5960314884475229 -0.5455384046762063 0.3238188246431946  0.6265568848856693 -0.5431275804921255 0.3226884897035183  0.6305918947882593 -0.5557282946594255 0.3498220552148641  0.631625109119716 -0.5455496795041932 0.3284610681821388  0.02466524399566326 -0.1238328127920783 -0.1565445449796555  -0.01218416019569027 -0.1580830741563842 -0.1496622677007001  0.1334976516832898 -0.3225573725599595 -0.1335000370674376  0.05300078200842612 -0.3330731618821323 -0.1358127269840018  -0.03111214506158012 -0.1730863962761589 -0.1586097578367974  -0.0122719721228769 -0.158217850843013 -0.1497349761321943  -0.03147664473470795 -0.1726597305556905 -0.1584395021741243  -0.08237101969099406 -0.2210674320732618 -0.02712286342145169  -0.06520149020786015 -0.230035478805812 -0.01827380532962242  -0.08472063666872989 -0.2228411938811052 -0.0319596433339491  -0.01662317202523136 -0.1787142646088129 -0.001499551788839038  0.2027446738146064 -0.3570322331143239 0.08820790175600393  -0.08888021699413616 -0.01795197815029198 0.05569468316196025  -0.1196888112878824 0.06516805268790538 0.08170845965114329  -0.1523684744853472 0.07268024200067078 0.1080294045262953  -0.2092528880450175 0.07380968993445745 0.104388655450165  -0.2142496581416828 0.07289475094555821 0.09987051112055986  -0.23572117070177 0.08245460750118846 0.09116183435586286  0.2055611097575266 -0.629734908959984 -0.2917223961384745  0.1936974285788477 -0.6300422347880366 -0.2888368724692024  0.003485728526903473 -0.3501303167088965 -0.1040149699134203  -0.1408026090499832 -0.2439286377303141 -0.04499779317717637  -0.005261688047992721 -0.3602752782007502 -0.08051733302597901  -0.1480301688118638 -0.3341308590522452 -0.05890467036616878  -0.005425649166243024 -0.3605384805682477 -0.08081866158046555  -0.153758187843197 -0.2903185813184879 -0.04856565014880365  -0.1677118840496175 -0.3331311726204119 -0.09892826590189291  -0.2090435600843076 -0.3034729767819886 -0.1685428649023571  -0.1604508664499066 -0.229073035044709 -0.07161220944328203  -0.1541210143029821 -0.2909458689077846 -0.04883275915233258  -0.1866712538630305 -0.253293178279144 -0.0961688582103277  -0.03578783128895079 -0.2175003165260648 -0.1353227236845796  -0.2079703853640595 -0.3041801097238966 -0.1704969025260547  0.1449187939191841 -0.3822818773148431 0.04822184071053896  0.1377738282177056 -0.3802199705886684 0.04947614045589101  0.1095577935207066 -0.3626237983147262 0.04471722719802131  0.294780628521755 -0.2313537397006273 -0.07064660764456304  0.2621859750408542 -0.2682491648864622 -0.06513721943028959  0.2962455177253699 -0.2234787070927595 -0.06503401895552138  0.3054041166863928 -0.2134353627572537 -0.05222245683333059  0.4846531709813824 -0.1221501818042053 -0.306213611566614  -0.2513534307485542 -0.4084418743877473 0.05267322921071552  -0.2551248358122118 -0.4074651124261719 0.05044475746112816  0.1656930424064706 -0.3333144314035102 -0.1396068711249469  0.2974638896429037 -0.2005048534381457 0.02631268369152736  0.29437369987233 -0.211632531538516 0.02723412773792219  0.2929297545714984 -0.2228668757835821 0.01709812753957616  -0.2551522487107868 0.09331750288717851 0.07200204550128381  -0.3008747119948778 0.2161530085857252 0.01788170553677269  -0.3123861092790154 0.2069871877032704 0.03924048653032958  -0.2580667420580335 0.1284208342068101 0.06520412409955623  -0.3033772379110846 0.1876789334786549 0.05007879275549488  -0.3169554127955005 0.1758746389086592 0.01817321831687312  -0.3712026474772964 -0.4685104362567148 -0.2676634370836978  -0.2059892062192503 -0.3893716583513402 -0.005876592226027293  -0.4864323617418724 -0.2405965860257962 -0.4464956467406495  0.7587135734042988 -0.2434531310770224 -0.4712734822663367  0.4000531080851731 0.4566472690893212 -0.5276525690400715  0.5003562801198038 0.2297680833859652 0.1244768826163631  0.2672486613895499 -0.8884726494798315 -0.03370139445054258  0.5627676850249621 -0.1223440680333373 -0.02827993898841343  0.2340643973690507 -0.2237924548879468 0.02898895887869618  0.2327622030590146 -0.3427754962735749 0.6441925720869996  0.255035551442069 -0.6202492661345856 -0.3182477731534026  0.4695994600962737 0.4389247844879346 -0.1989542019219289  0.6165982329511744 -0.5786086441845004 0.3409503390176326  0.3169306633148368 -0.2909154566384632 0.4355017693247736  0.3038446528426122 -0.7572895781255532 -0.06439461296796298  </DataArray>
</Points>
<Cells>
<DataArray  type="UInt32"  Name="connectivity"  format="ascii">0 1  0 2  1 3  4 5  4 6  7 8  7 9  10 11  10 12  13 14  13 15  14 16  5 17  18 19  18 20  19 21  22 23  22 24  25 26  25 27  26 28  27 29  29 30  31 32  31 33  32 34  34 35  36 37  36 38  35 39  8 40  40 41  41 42  42 43  43 44  9 45  46 47  46 48  45 49  49 50  49 51  50 52  53 54  53 55  56 57  56 58  59 60  59 61  11 60  61 62  37 63  39 64  62 65  65 66  66 67  15 68  68 69  15 70  71 72  71 73  51 72  74 75  74 76  44 77  78 79  6 78  78 80  28 79  81 82  3 81  82 83  57 69  57 84  84 85  85 86  21 87  87 88  17 89  90 91  90 92  91 93  93 94  94 95  95 96  23 97  24 98  98 99  100 101  100 102  101 103  103 104  30 105  38 106  106 107  16 108  109 110  109 111  112 113  112 114  75 113  102 115  115 116  2 116  58 117  67 118  119 120  119 121  73 122  122 123  76 77  89 124  125 126  125 127  126 128  105 128  86 129  129 130  130 131  88 132  132 133  133 134  135 136  135 137  138 139  138 140  141 142  141 143  142 144  108 145  146 147  146 148  147 149  150 151  150 152  151 153  139 154  155 156  155 157  156 158  143 159  159 160  12 161  162 163  162 164  163 165  165 166  167 168  167 169  168 170  171 172  171 173  172 174  174 175  175 176  104 177  178 179  178 180  179 181  180 182  182 183  184 185  184 186  185 187  153 188  186 188  189 190  189 191  190 192  192 193  110 194  194 195  191 195  111 196  173 197  198 199  198 200  176 199  64 201  201 202  145 203  203 204  205 206  205 207  166 208  204 209  206 209  208 210  210 211  211 212  120 210  121 213  107 213  114 214  214 215  215 216  216 217  48 52  218 219  218 220  221 222  221 223  80 222  20 224  83 224  225 226  225 227  127 228  228 229  169 226  227 230  170 231  232 233  232 234  134 235  236 237  236 238  236 239  140 240  240 241  237 242  242 243  241 244  245 246  245 247  246 248  148 249  249 250  250 251  136 252  117 149  252 253  251 253  252 254  96 254  233 255  256 257  256 258  164 259  259 260  161 261  99 262  261 262  177 263  263 264  264 265  181 266  197 265  197 266  267 268  267 269  268 270  271 272  272 273  273 274  187 275  274 275  260 276  276 277  277 278  124 279  279 280  219 280  63 202  54 281  281 282  282 283  158 283  223 284  284 285  285 286  229 287  230 288  289 290  183 291  291 292  231 292  144 247  238 293  137 293  152 294  294 295  239 295  160 296  234 296  55 297  297 298  298 299  255 300  300 301  302 303  97 304  304 305  299 306  269 306  269 307  308 309  308 310  305 309  311 312  311 313  257 314  312 314  301 303  248 315  278 316  316 317  317 318  318 319  319 320  320 321  287 290  290 322  288 323  322 323  307 324  313 325  324 326  243 244  243 327  243 328  244 329  327 330  330 331  325 332  326 328  329 333  333 334  310 335  335 336  332 334  200 334  286 331  286 336  315 337  337 338  338 339  154 339  340 341  340 342  33 343  193 344  157 344  92 345  220 346  345 346  341 347  270 347  212 348  207 258  348 349  349 350  342 343  321 351  217 352  352 353  354 355  351 354  353 355  355 356  6 357  237 358  173 359  196 360  123 361  118 362  235 363  201 364  350 365  131 366  289 367  47 368  302 369  70 370  271 371  </DataArray>
<DataArray  type="UInt32"  Name="offsets"  format="ascii">2 4 6 8 10 12 14 16 18 20 22 24 26 28 30 32 34 36 38 40 42 44 46 48 50 52 54 56 58 60 62 64 66 68 70 72 74 76 78 80 82 84 86 88 90 92 94 96 98 100 102 104 106 108 110 112 114 116 118 120 122 124 126 128 130 132 134 136 138 140 142 144 146 148 150 152 154 156 158 160 162 164 166 168 170 172 174 176 178 180 182 184 186 188 190 192 194 196 198 200 202 204 206 208 210 212 214 216 218 220 222 224 226 228 230 232 234 236 238 240 242 244 246 248 250 252 254 256 258 260 262 264 266 268 270 272 274 276 278 280 282 284 286 288 290 292 294 296 298 300 302 304 306 308 310 312 314 316 318 320 322 324 326 328 330 332 334 336 338 340 342 344 346 348 350 352 354 356 358 360 362 364 366 368 370 372 374 376 378 380 382 384 386 388 390 392 394 396 398 400 402 404 406 408 410 412 414 416 418 420 422 424 426 428 430 432 434 436 438 440 442 444 446 448 450 452 454 456 458 460 462 464 466 468 470 472 474 476 478 480 482 484 486 488 490 492 494 496 498 500 502 504 506 508 510 512 514 516 518 520 522 524 526 528 530 532 534 536 538 540 542 544 546 548 550 552 554 556 558 560 562 564 566 568 570 572 574 576 578 580 582 584 586 588 590 592 594 596 598 600 602 604 606 608 610 612 614 616 618 620 622 624 626 628 630 632 634 636 638 640 642 644 646 648 650 652 654 656 658 660 662 664 666 668 670 672 674 676 678 680 682 684 686 688 690 692 694 696 698 700 702 704 706 708 710 712 714 716 718 720 722 724 726 728 730 732 734 736 738 740 742 744 746 748 </DataArray>
<DataArray  type="UInt8"  Name="types"  format="ascii">3 3 3 3 3 3 3 3 3 3 3 3 3 3 3 3 3 3 3 3 3 3 3 3 3 3 3 3 3 3 3 3 3 3 3 3 3 3 3 3 3 3 3 3 3 3 3 3 3 3 3 3 3 3 3 3 3 3 3 3 3 3 3 3 3 3 3 3 3 3 3 3 3 3 3 3 3 3 3 3 3 3 3 3 3 3 3 3 3 3 3 3 3 3 3 3 3 3 3 3 3 3 3 3 3 3 3 3 3 3 3 3 3 3 3 3 3 3 3 3 3 3 3 3 3 3 3 3 3 3 3 3 3 3 3 3 3 3 3 3 3 3 3 3 3 3 3 3 3 3 3 3 3 3 3 3 3 3 3 3 3 3 3 3 3 3 3 3 3 3 3 3 3 3 3 3 3 3 3 3 3 3 3 3 3 3 3 3 3 3 3 3 3 3 3 3 3 3 3 3 3 3 3 3 3 3 3 3 3 3 3 3 3 3 3 3 3 3 3 3 3 3 3 3 3 3 3 3 3 3 3 3 3 3 3 3 3 3 3 3 3 3 3 3 3 3 3 3 3 3 3 3 3 3 3 3 3 3 3 3 3 3 3 3 3 3 3 3 3 3 3 3 3 3 3 3 3 3 3 3 3 3 3 3 3 3 3 3 3 3 3 3 3 3 3 3 3 3 3 3 3 3 3 3 3 3 3 3 3 3 3 3 3 3 3 3 3 3 3 3 3 3 3 3 3 3 3 3 3 3 3 3 3 3 3 3 3 3 3 3 3 3 3 3 3 3 3 3 3 3 3 3 3 3 3 3 3 3 3 3 3 3 3 3 3 3 3 3 3 3 3 3 3 3 </DataArray>
</Cells>
</Piece>
</UnstructuredGrid>
</VTKFile>