<?xml version="1.0"?>
<VTKFile type="UnstructuredGrid"  version="0.1"  >
<UnstructuredGrid>
<Piece  NumberOfPoints="431" NumberOfCells="433">
<Points>
<DataArray  type="Float64"  NumberOfComponents="3"  format="ascii">0.1691931893612401 -0.07027024703892044 -0.1252575239096522  0.1422726702356625 -0.07055866980538822 -0.1123389690167998  0.2101031448018061 -0.04966422778339724 -0.1221968979031267  0.2403683240162502 0.2881595117646317 -0.1791656140221068  0.2449597183788928 0.3044532216118359 -0.1839347002220885  0.1803620363723328 0.2409063464599794 -0.1687446576306062  -0.1165069236713282 -0.2752488470244133 0.3432895670865265  -0.1506357451289179 -0.2950820111585484 0.3462603656089732  -0.0578862145142513 -0.27839147824788 0.3566823052262951  0.5810867831502915 0.05566925283543123 -0.002806556277739909  0.4864349652149801 0.03166338613790921 -0.05089826618028205  0.5837348854923949 0.05786668719041359 0.007036474309519786  0.3033495080376336 0.537762665009163 0.004041951854265313  0.3029177197553785 0.5590489910849119 0.03187571918778216  0.3056082355518305 0.5300828416705194 0.002932495489007467  -0.06835038397430275 -0.2539091206166458 0.09253613553427498  -0.09397218055676249 -0.2216997656712026 0.06001992773239864  -0.04976390802828919 -0.2703850856979586 0.08770619086932917  0.1279624922465662 -0.06618959744595657 -0.1220520375373013  0.1055249960013091 -0.05311047669439757 -0.1226133833448388  0.1002272838375157 -0.05900299359235758 -0.121163275310184  0.2282435169369664 -0.05265095044057898 -0.1206901801776439  0.3561791668386023 -0.0003896439055169013 -0.1167546630285796  0.3811788282951543 -0.0008883072652706055 -0.1013109479311374  0.3540077785855269 -0.001287420788194008 -0.1198166260689565  0.4723916557106326 0.2828986295262716 0.4478706551684883  0.5377753292159875 0.2807948745602486 0.4189026318427748  0.438353119214591 0.2606121116216452 0.4334777401890942  0.2976334505016424 0.2793890233863013 -0.2021545657553904  0.2997625559439311 0.2872156756047298 -0.2123665306854788  0.2489901547132004 0.2950053531682243 -0.1772572493259864  0.2494049113453427 0.2953652155402793 -0.175321495891418  0.2386602276975893 0.286974823445225 -0.1691852489715302  0.2480551605824645 0.3853602335674086 -0.2479963075015617  0.2392125421447535 0.3284602962985825 -0.1983156031227101  0.264566096900116 0.4646571360826792 -0.3002364732839236  0.2447831884783572 0.3061204255891921 -0.1855707045515866  0.2938541998772264 0.4632274838592074 -0.3225854249156106  0.2962451580355482 0.4636430469354315 -0.3325223015372837  0.6025948461457717 0.1104727320750977 0.059360989490362  0.6259392964300682 0.1183215066577717 0.07278014900558688  0.6007181251913599 0.1004999491486075 0.05643358979775009  0.7406211032966283 0.346136115636988 0.4545365458585546  0.5574917645661231 0.2848652128321182 0.4477580782259567  0.5460880263098469 0.2878207904031178 0.4364876959812651  -0.02798447374323323 -0.1365030581073132 0.1180759779107699  -0.04782109564046808 -0.1281548601000938 0.1319265934559943  0.01844443111857836 -0.1206946365934093 0.05838325877813537  -0.1086244490809836 -0.2138178475539604 0.04928580240174322  0.19400156543452 -0.3652118191481759 0.4062440895382289  0.1963498317569676 -0.3697650922082866 0.4062171239424952  0.1811142299679213 -0.3653560590240472 0.3961535237597317  -0.1702835911751155 -0.2729036888361714 0.3549767875444199  0.6721103948377203 0.1327995322175858 0.1368527815674182  0.4232823571511907 -0.01888632095111927 -0.05245559472371397  0.4417314389439664 -0.0002920593700820491 -0.04168424607615015  0.4795348511523158 0.03071778960519229 -0.04992412469890707  0.4374470284307557 -0.01679793677027806 -0.0392903160949033  0.5944969424584599 0.1040152634172685 0.188789890819097  0.5892283252860145 0.1000280170320148 0.1931487589368308  0.4159333385477098 0.07900582915993037 0.137347104472658  0.3782543738106138 0.04599363830685467 0.1653698956167807  0.4453195373045656 0.07686979907748569 0.1507669379461643  0.3150295075474871 0.02907263941780347 0.1998234685374572  0.225613006588043 -0.3812407982291536 0.3943773427875859  0.2624711888695223 -0.3331860914517241 0.3635786549817226  0.2251560099624661 -0.3815391523248157 0.394683611103599  0.3180843859127047 -0.3224008247176438 0.3895265063531984  -0.1158085103498116 -0.04328830407258694 0.2490688212199147  -0.1067795002754761 -0.0408652322584007 0.2459989786004955  -0.229934552204982 -0.01503246125462304 0.2817688727420197  0.3249692361272526 0.4601631374671215 -0.3659613238259414  0.3075311041061574 0.4531358342313719 -0.3559366979149966  0.3202546016354787 0.4555587255084925 -0.3808484350384727  0.355641714911206 0.6106311714950099 0.04449426828280104  -0.172589343713164 -0.3569121428962442 0.1428158227527047  -0.1557106358175104 -0.3530851333139698 0.142821210890882  -0.2128589788761668 -0.3415267398211731 0.1158845497664129  -0.03071644460635645 -0.3100349001659836 0.377894735163713  -0.009309963266165545 -0.2894558808571155 0.3935688692542098  -0.05057639128359542 -0.2715746826440212 0.0898058188074506  -0.1028329196563349 -0.3478444087632223 0.1265986868165199  -0.1886365373027495 -0.3265235018152617 0.1861235617645666  -0.2072007603321552 -0.3108901231309102 0.1927348165566047  -0.1402303197715366 -0.3848964698776756 0.217554576858566  -0.1293222387375083 -0.1890505780207832 0.1922689972788371  -0.1187283990081232 -0.1775029914856616 0.1938815883454135  -0.267666317065105 -0.2596668706145144 0.1790264670379953  -0.1020700398058607 -0.16767717869542 0.1835569291142205  -0.2642275879752581 -0.2811978488508296 0.1722061980965656  -0.1765623302902962 -0.2558759700361741 0.3598351937219423  -0.1854933054127779 -0.2487015715278436 0.3703718880964258  0.03691279945339258 -0.1183075974943873 -0.1557823897747211  0.1652085347877102 -0.7760926524541713 -0.1266733595988021  0.1582885758328096 -0.8256112941129923 -0.1176728786679851  0.1749182124699909 -0.7634678264403003 -0.1212335600982788  0.3315879390079305 -0.004448004145901865 -0.1500723599635655  0.2290958167754982 -0.04960060796842911 -0.1185077244061529  0.3700849203828981 -0.1667077244705704 0.08849316228153552  0.4462945146642623 -0.1119844549046003 0.1236838576189194  0.3648043556927513 -0.1648418453900285 0.09005838389052238  -0.2945908004178898 -0.1786137857084869 -0.01029366288614707  -0.2894625736949779 -0.1617242695232102 -0.003933988717521084  -0.3095876533212393 -0.1905340901952726 -0.0213209497955037  -0.1015605535914539 -0.1676549899686587 0.1828115718979701  -0.1005853450195716 -0.164118406944336 0.1795273759094488  0.1231014205019036 -0.3569019139092789 0.3933360014348283  0.09366366485528188 -0.3331797118722979 0.3798675439428029  0.1754225622222522 0.2340214467000811 0.006318727409742958  0.1886227577510067 0.2369727936079095 0.007959860872746312  0.1183613831922495 0.1863245895915754 0.02189087091431713  -0.5475770323787337 -0.3905126886713611 -0.05334216050144087  -0.5216901216077284 -0.3784019094934493 -0.03355519261643351  -0.6557931592113122 -0.434124434371887 -0.02123739803026743  -0.5186874822341734 -0.3739581408621345 -0.02999863570770057  -0.6489408219516895 -0.4466056009242994 -0.03399758820043275  -0.6465215756474212 -0.4557905413024712 -0.04645258426138703  0.2237509640508406 0.4385433736477958 -0.001260090349911869  0.2868810920842727 0.4737896638114356 0.01073965320148013  0.223896849915871 0.4340818864810482 -0.001638632107051955  0.2955520132089023 0.4901822001013296 0.001584157876186876  0.2215490413658435 0.2565880986720141 0.04095002366118941  0.2264974935281099 0.287290037710297 0.04325800254747306  0.1808620553206078 0.2414326680449355 -0.1608271691105479  0.2533249441221259 0.2926989498083878 0.04780776292213466  0.2698469380853276 0.3257901054144763 0.1323089748177209  0.2403763491464421 0.2970739336765625 0.04611096013770517  0.2840522253966988 0.330509785517472 0.1276769380265953  0.1128954054742516 0.1122904304667453 0.300983589677017  0.1090082980380936 0.1208950352851338 0.3053906870660291  0.06488910224390072 0.09043080512763768 0.2382468554269719  0.2912777093319391 -0.1604885677227894 0.05578974846618645  0.2390504932704796 -0.1459860491957779 0.04467678984555497  0.3017845488594798 -0.1650348865572402 0.06578106777310462  0.4671110402074698 0.07050793171718552 0.1667631366113004  0.4805002038161534 0.05938739719031072 0.1857152432321817  0.5353631165888892 0.06720934455248394 0.186715912688407  0.4826642350725578 0.05742448681091293 0.1852622431789513  0.3871887182209763 0.2282552334790503 0.3456468234898321  0.4174023226673635 0.2383224055667941 0.3533276987336096  0.345294526944586 0.2018434465945913 0.3478971195136867  0.4429384900905271 0.2231250398646795 0.3843782667580241  0.3014216580405137 0.1702260072126999 0.3543543000580535  0.1938123085648935 -0.2889296084069513 0.6295431351340983  0.2031269716946802 -0.3061040270349986 0.6377393656135937  0.1366392810271131 -0.2660148423752265 0.6408684323157378  0.4588759653581975 -0.0813921226405311 0.1447488485884177  0.4624253746449642 -0.07916661618705943 0.1941411915676856  0.4568560572530864 -0.08213225765232542 0.1946673276889321  0.390903646338859 0.4080528254534492 -0.4409852151451197  0.4260562907162684 0.4219580933483529 -0.4705724486980954  0.3080067467423653 0.5242741907803417 0.005024743242607835  0.1700178290568596 0.2211990502045015 -0.1475138197336875  0.169963984697882 0.2211056838240393 -0.1475966491987752  0.1338290735113243 0.2124874733484026 -0.09750736663284015  0.1033371652186489 0.2051097352566305 -0.0844254923243752  -0.4304667559294241 -0.4302223081640807 -0.1484114439540332  -0.37470041111968 -0.3689738327951593 -0.164015294119109  -0.4320988549603088 -0.4419630755988467 -0.1430844281013113  -0.3260903503431883 -0.3457779300483082 -0.162835308994702  0.2343702962555604 -0.3172985146701385 0.6533475365305556  0.242077440046039 -0.3223421947115538 0.6590377471667059  0.254750586650802 -0.3371543380951819 0.6555656883709805  0.1624584791808218 -0.8270091230900605 -0.113169462409716  0.1569006888776968 -0.8406932354915148 -0.08866749621786008  -0.06357851216805593 -0.3629026846245096 0.06895821787206854  -0.01988463908796431 -0.3193379744683304 0.01112873741179614  -0.01838301155250447 -0.2953401726460582 0.02391235126998749  -0.01905251390968093 -0.3232288264578346 0.009532098281541487  0.0257558074891189 -0.478664140025168 -0.02574589407060078  0.09412973413294286 -0.5422255189442948 -0.05092011355557471  0.02278761307113631 -0.4630569610558512 -0.01972679150923713  0.09509429708817144 -0.5438968877718618 -0.05015458794230301  0.09309883682236038 -0.3650607304042499 0.0426858678010853  0.05639268154120429 -0.3822636964321105 0.01995011549666897  0.1085504228062238 -0.3618105575691098 0.04608172570722158  0.190608031922918 0.1094700551674898 0.1506373323260018  0.1907125152950917 0.1093727451244157 0.1506724366016304  0.1651803322644991 0.1031935927900497 0.1523645319496126  0.1748899077630464 -0.6440498265616199 -0.04714799640548131  0.1498832391069404 -0.6187925696696861 -0.05522038257153567  0.1773389365725221 -0.645584324972353 -0.04870315542498607  0.1084244550051709 -0.5482125954227162 -0.04702412582557745  0.1415195787022812 -0.609566173551675 -0.05986594363761534  0.1841236761984764 -0.693996663324455 -0.08040605927146816  -0.09797299971443929 -0.3131270963495513 0.4987071490460215  -0.04826811379015389 -0.3073211993752504 0.5115516342386065  -0.1325936243289773 -0.283775537599892 0.472755512671184  -0.2321725406325187 -0.3460492603484808 0.09745042451323664  -0.2914415319459476 -0.3095884682478394 0.1141734532026253  -0.2817771595959956 -0.2758793763640903 0.169182634792044  -0.2942229185263694 -0.2575989388616264 0.1729970065837996  -0.272468814855075 -0.2590203805111833 0.1788687429120942  -0.2904763787358919 -0.2543184107647766 0.1754560776837872  -0.2473469097878481 -0.1146416733471994 -0.008312101006766465  -0.09400290220952483 -0.150955244659783 0.1377659226000936  -0.08193703671015175 -0.02391511209562742 0.2495423811996348  -0.09093045173241633 -0.03986658302971591 0.2534744245519723  0.001465469949999798 -0.02623735525543947 0.2013071342801544  -0.0888218624310233 -0.006545368027183932 0.2368360374714511  -0.0885387071879619 -0.004774972832729632 0.2349447131107509  0.03824978146140835 -0.3027932497916525 0.4062219593757666  -0.1345021425530524 -0.1882490607315172 0.07274324869056628  -0.1131170567164129 -0.2153604579072488 0.04894814340783811  -0.1353443329482029 -0.1880657741673212 0.07262899651799139  -0.3276120757455696 -0.233234132838768 -0.02943227441066926  -0.3266509348810063 -0.2094971334067606 -0.01332376452201374  -0.3359110234519667 -0.2437717420118614 -0.041702503756275  -0.4968565858645015 -0.3756987260222869 -0.03800759794685889  -0.4683266028323902 -0.3174764815246524 -0.06362861874815962  -0.5047265402745184 -0.3722703875615532 -0.03233451764219816  -0.4358270974373499 -0.2972729452047738 -0.05970782990994342  -0.3823698295943677 -0.2702840430257727 -0.07221605841078133  -0.2771722393413428 -0.2155055530889035 0.3301652210640116  -0.2560603082504506 -0.2212598878152547 0.346356596043689  -0.298486340569205 -0.2112863378151996 0.307986096883879  -0.6473796195163362 -0.456732990244598 -0.04902294086937613  -0.6496569977833604 -0.460559539103534 -0.05071436352650562  -0.5565351374836544 -0.5364159952403439 -0.1484767771231014  -0.5682521835658779 -0.551494535845487 -0.1538675735937505  -0.5297256634963236 -0.5404234439123176 -0.1343112485707412  -0.6629301760384866 -0.5427417565416467 -0.1035962328387438  -0.6772131438121368 -0.5490211963242499 -0.08564857641799237  -0.6280700188475158 -0.5601066430492204 -0.1322671145098833  -0.6780371814192899 -0.543431725460811 -0.08216783765528492  0.2296470459678134 0.2886381295032532 0.04329166690852977  0.2345510813234775 0.3017368141955711 0.0510845978312977  0.2352093297307884 0.3392396574449681 0.03562704045592213  0.1017878954324607 -0.1574018379070096 0.05527772411566385  0.1035620709480261 -0.1669862432252631 0.0501812349341285  0.09620324758161149 -0.1534659680068776 0.05312587728884993  0.1109950331586999 -0.1638585010310853 0.04685137534717658  0.2249398968554568 -0.1445419900697932 0.03968498664660941  0.1978977522266518 -0.1452954301657139 0.03551458190561478  0.3036461467976974 -0.1676929620919612 0.06553750747331749  0.3345552409882986 -0.1654543560933569 0.07093565646767824  0.4777449351573292 -0.5592848052867601 0.0326131819186357  0.4249745269337717 -0.4891264973750866 0.006296781663828693  0.1774609599155481 0.1512422889929658 0.2901182364761372  0.2713596805717096 0.1515116768422066 0.3730376233560335  0.1343567217090804 0.1517094977099043 0.3064450528505988  0.2914489588484606 0.1506979972651551 0.3686070986774868  0.2740692493756766 0.1556218854388006 0.3754841111538624  0.04143804424678167 -0.2940805323295265 0.5843018670513034  0.04128232403888146 -0.2947963466190281 0.5834463381873185  -0.03899610708806558 -0.2956515574408934 0.5646599216944913  -0.04245094669811485 -0.2992824118655369 0.5648701651952025  -0.001493768686414418 -0.2814277144610571 0.5689952707400175  -0.2818141088532602 -0.3332984904029592 -0.1710064830636625  -0.3721724800774619 -0.2593368879790779 -0.07543552528502338  -0.2609697602671835 -0.3193041668326509 -0.1739702385479876  -0.2724246576755754 -0.3190256161006794 -0.174635389968234  -0.2456662864999704 -0.3207886830993562 -0.1803285999481364  0.2382518078696846 -0.9248343162817597 -0.04904877462029923  0.004651859650027318 -0.3499796665886864 0.006513404351447004  0.01254783068337899 -0.3612140514673445 0.00648737063206084  0.3863549022478545 -0.495293496614119 -0.03210386179376006  0.4126774368105847 -0.4851488870308344 -0.003953194787742866  0.3558280875854058 -0.504329316488247 0.01848661039033613  0.01413436158035992 -0.5232427960386394 0.1913414616935821  0.0273569506910788 -0.5321954925212568 0.2118073747934792  0.001146639446713518 -0.5136505121303749 0.1808263435998695  0.0561298235654589 -0.5495513011393091 0.281859830759901  -0.07220780738767762 -0.4528973081550433 0.2003832708131707  0.05688327004464115 -0.5490610719392879 0.2813584277117757  0.0653151746316144 -0.5497697363931017 0.2773411440117521  0.1924784051375539 -0.5301000271998895 0.319321764818138  -0.1338860975265879 -0.3943582634667198 0.1999553520621206  -0.1236504466090011 -0.3953698570552968 0.1964857064990757  -0.0743893284563112 -0.4536015415040736 0.1993530743976654  -0.1122761760192097 -0.399929096173238 0.1938895882269886  0.08970400878985867 -0.1768464543098587 0.03122918604887873  0.0449354853608392 -0.1904018434966298 0.006529564492016068  0.09792028888967776 -0.1774157087447357 0.03801629787799752  0.1026034380367016 0.2091261506014818 -0.08040506043427188  0.05979250002612783 0.2185287165980578 -0.06710720704415514  0.0301669786167398 0.2189436234689268 -0.02414301775626536  0.1059578873777051 0.1878461905112657 0.03240861081612332  0.1073769136587054 0.1810997186936913 0.03829551273352272  0.03061646158718459 0.2173741754751021 -0.01613149637183527  0.06662629730436741 0.1508562543659929 0.06106349253861713  -0.1004362897411417 0.1447802969090255 0.09179463735928434  -0.09924486208700953 0.1515383261996098 0.09565762246186039  -0.1183012432515521 0.1366404500968118 0.1010226278217275  -0.06634284520319271 0.143772840852435 0.09879380499787875  -0.3992028379946727 -0.02219929057943406 0.2077264748580993  -0.3925315472343093 -0.03834834693173021 0.212686161779881  -0.3835438350223814 -0.00161370397701013 0.1864296130723797  -0.2299611328499966 -0.01503413283299804 0.2818691464435739  -0.1459463859926171 -0.1692574744145612 0.07256813616111427  -0.1850537289832672 -0.1232252910211653 0.0794346726287942  -0.2019329833368425 -0.1191350044897705 0.08719082602069562  -0.2115577281999033 -0.09572741723489073 0.1430104490888893  -0.2925217480832036 -0.2526563840958359 0.1760416571136727  -0.2351696553840996 -0.05661833360284266 0.1364596653218696  -0.1892338868224656 -0.08552874414796714 0.1664166822317412  -0.2427015489716186 -0.05113671504430382 0.1350148026659951  -0.1673204223647146 -0.07252574573835061 0.1604816274213471  -0.4073386775192841 -0.1078582493066298 0.2044527656831446  -0.2743615761153537 -0.07381472260002035 0.2930097813040756  -0.3480929978340199 -0.1510234752757607 0.2767103323632579  -0.2743642380020297 -0.06650170869390745 0.2913408929713133  -0.4068246114257437 -0.113181582706908 0.2109757774776159  -0.400096779910741 -0.1362146012286038 0.2247297573438041  0.00469933105004066 -0.2896285464608656 0.3894073384103108  -0.224195661134592 -0.09220435035149252 0.003112856978099522  -0.2350457295423796 -0.1046695338470909 -0.003339133665964111  -0.216808217937303 -0.0885962882422419 -0.001861491666543688  -0.1876660148815323 -0.2506828780867748 0.3737279682205831  -0.1866594108688423 -0.2491633364054195 0.37204514080573  -0.4751618308086644 -0.2050073681328209 0.2151314372550409  -0.4506958733891191 -0.2087471052454072 0.2150731230455405  -0.4320653467251585 -0.1718047655238124 0.2234208627225113  -0.6673798195375744 -0.5286739323493752 -0.0914214325696512  -0.4882121178658257 -0.5311707673684598 -0.1523379804583805  -0.470617570359853 -0.5212550882610897 -0.1573507997357715  -0.4314421472373498 -0.4646128845270215 -0.1533617503562758  0.2453453628005891 0.07301377103023168 0.1236539059840174  0.2173071088310196 -0.0127133364141046 0.1574369277476134  0.2527466071871095 -0.0185687952749936 0.1621332559776098  0.18008756008213 -0.01522974371764662 0.181049967512026  0.3124225976669491 0.02567026163141101 0.1981580500306255  0.2585427626794708 -0.01544629498180463 0.1568842156488045  0.04106334902354528 -0.2965066687690684 0.5821168931263874  -0.2408004464142827 -0.3165162046895915 -0.1810196237400296  -0.2210799655665339 -0.3032380646304819 -0.179198970447483  -0.2163600684663166 -0.3032550869946655 -0.1751062891269691  0.2343046890660735 -0.4339928776025224 0.02690369144625757  -0.04019439731653985 -0.3563621361406561 0.03624890946814545  0.02683228947434645 -0.3859064493159461 -0.009146814854899529  0.01673095283843324 -0.4407365588798491 -0.02151076376153119  0.02466524399566326 -0.1238328127920783 -0.1565445449796555  -0.01218416019569027 -0.1580830741563842 -0.1496622677007001  -0.03111214506158012 -0.1730863962761589 -0.1586097578367974  -0.0122719721228769 -0.158217850843013 -0.1497349761321943  -0.03147664473470795 -0.1726597305556905 -0.1584395021741243  -0.08237101969099406 -0.2210674320732618 -0.02712286342145169  -0.06520149020786015 -0.230035478805812 -0.01827380532962242  -0.08472063666872989 -0.2228411938811052 -0.0319596433339491  -0.01662317202523136 -0.1787142646088129 -0.001499551788839038  -0.1168575994416993 -0.05127859569853318 -0.01363539700320615  -0.1151781143875352 -0.03777926988551617 -0.003479150930497082  -0.1349509343793593 -0.0603282728021921 -0.0151520735319785  0.02565503742017086 0.2048742713727185 -0.01366980024938544  0.02398256144266433 0.1983483416119286 -0.01144207375469046  0.05973525890408284 0.1249190970186093 0.069667143232286  0.1878914083673489 -0.4313686729375097 0.0406460170765356  0.2056170337904826 -0.4387454211200867 0.02857971550029704  0.1449187939191841 -0.3822818773148431 0.04822184071053896  0.2165009722243736 -0.4375547668600719 0.0310351075140505  -0.1932906801209959 0.1121122473617816 0.1209849146525279  -0.2406873490320845 -0.04821793514591864 0.129141583596033  -0.356582115133845 0.06355732948018926 0.1860270384721089  -0.2327983569024844 -0.02710887000045586 0.1146043068962317  -0.1666797037208374 -0.07407702061292067 0.1610769015541357  -0.09282735035098819 0.01913531271257805 0.231026666605063  -0.1513761104020848 0.07565946564171872 0.1105062240198904  -0.1221293637469533 0.07492978637262718 0.09307207132668677  -0.1523684744853472 0.07268024200067078 0.1080294045262953  -0.08486409201521056 0.1014396160747999 0.0754008759095539  -0.08028115918443855 0.01793684598562738 0.2214438197056762  0.005638640316129317 0.03441315645248749 0.1932351333218008  0.01957495864333283 0.09365785778572819 0.04732300278964042  0.07941736351158898 0.09166241128643089 0.221736423269263  -0.1135147757458659 0.03661983667055254 0.008931778737958515  -0.1076603057412501 0.04969249455420875 0.01940193359787949  -0.09260675098215075 0.05474301916963414 0.04251068516890947  -0.08692290056003349 0.06230293654934571 0.04293691000117403  -0.1657113552867232 -0.01500122854498591 0.1173441055209175  -0.383332441550412 -0.2685783193024588 0.1547095755496473  -0.3290156790316331 -0.233151893480947 0.1452087532073211  -0.2964538023231855 -0.2436269424354476 0.1753952252302462  -0.4016136526450583 -0.1293693245923944 0.2573518424008432  -0.3969658244801739 -0.1265174515364672 0.2486472727470675  -0.307358840161545 -0.25653503746727 0.1589455163598945  -0.3299992874306836 -0.2550953292667231 0.1356997912426655  -0.3104877311502399 -0.1795091429202335 0.2793987787547655  -0.2677596967026625 -0.05746701070738099 0.2821682559890411  -0.1408026090499832 -0.2439286377303141 -0.04499779317717637  -0.1604508664499066 -0.229073035044709 -0.07161220944328203  -0.03578783128895079 -0.2175003165260648 -0.1353227236845796  -0.2079703853640595 -0.3041801097238966 -0.1704969025260547  -0.1866712538630305 -0.253293178279144 -0.0961688582103277  -0.2090435600843076 -0.3034729767819886 -0.1685428649023571  -0.1450730073011915 -0.07434577330412054 -0.01422938180776827  -0.05674760505157952 0.1197028858825491 0.08809389749317502  -0.08635881452365941 0.1136022103477888 0.07829933223768218  -0.01034638086881132 0.06236578874362547 0.05303246868664799  0.02022000161122774 0.08581434068603253 0.04352029978437322  0.1377738282177056 -0.3802199705886684 0.04947614045589101  0.1095577935207066 -0.3626237983147262 0.04471722719802131  -0.3573265140945509 0.06430168322960805 0.1832041204166353  -0.3424418329320931 0.07188345631072102 0.1519045884889712  -0.2113237601266678 0.1143824480316062 0.1098768308171546  -0.00991780626034823 0.06578730360804819 0.05590322766208593  -0.3301771921563366 -0.2548579565980428 0.1356044381608734  -0.3278419762152567 -0.2582776922759293 0.1336616180896739  -0.3142621277282621 -0.2891658076348754 0.1186495072272718  -0.3142602846582591 -0.2893679059675789 0.1176738276378196  0.2328133031929113 -0.1583975558264761 0.0319777877073688  0.2974638896429037 -0.2005048534381457 0.02631268369152736  0.1034931804910162 -0.1699677467249347 0.04805318084105703  0.29437369987233 -0.211632531538516 0.02723412773792219  0.2929297545714984 -0.2228668757835821 0.01709812753957616  -0.2314070400555523 0.08322003167939332 0.09504326984183209  0.1170143728615798 -0.09284282219524236 0.1936261340611345  0.1792686332679581 -0.016336299630258 0.185032074379468  0.07494294630344941 -0.08372591733417316 0.2233386214868145  0.004121341783267188 -0.03147678504158278 0.1984124615903798  0.003566948081212676 -0.030472627820978 0.199764557451728  0.0547540823001016 0.0844505379320384 0.2386826222145507  0.05904729480806986 0.09378330850215361 0.236110652687728  0.05887005672999321 0.09437597696235382 0.2349261818303462  -0.4118129834820575 -0.1835483129020881 0.1742890346706894  -0.273692739052821 -0.1008429635391416 0.1080344408690631  -0.6167181506812494 -0.5656175925807508 -0.05345615771994559  -0.490825746431204 -0.191090225666024 0.2455215960239036  0.249611317949624 0.05349104780804854 0.1842255095578579  0.4980995489841525 -0.51354519350077 0.04293095609175466  0.4358733012901092 -0.03702497797004703 0.1864872464297695  0.4000531080851731 0.4566472690893212 -0.5276525690400715  0.3450526135975519 0.5918297377259025 0.06649283706071063  0.2672486613895499 -0.8884726494798315 -0.03370139445054258  0.6733606515829458 0.325518588658244 0.4256581649149734  0.2340643973690507 -0.2237924548879468 0.02898895887869618  0.3184698834490327 0.2993133837366596 0.117742359614234  0.2327622030590146 -0.3427754962735749 0.6441925720869996  0.2090672284704503 -0.5404055007143994 0.2703770567648299  0.3111593766426196 0.2545541849706589 -0.2291536898963224  0.3169306633148368 -0.2909154566384632 0.4355017693247736  0.6340914803659656 0.1767249549352265 0.1495642665737901  </DataArray>
</Points>
<Cells>
<DataArray  type="UInt32"  Name="connectivity"  format="ascii">0 1  0 2  3 4  3 5  6 7  6 8  9 10  9 11  12 13  12 14  15 16  15 17  1 18  18 19  19 20  2 21  22 23  22 24  25 26  25 27  28 29  28 30  30 31  31 32  33 34  33 35  4 36  34 36  35 37  37 38  39 40  39 41  42 43  43 44  26 44  45 46  45 47  16 48  49 50  49 51  7 52  40 53  23 54  55 56  55 57  10 56  54 57  53 58  58 59  60 61  60 62  61 63  64 65  64 66  65 67  68 69  68 70  71 72  71 73  38 72  13 74  50 66  75 76  75 77  8 78  78 79  17 80  76 81  82 83  82 84  85 86  85 87  86 88  83 89  52 90  90 91  20 92  93 94  93 95  24 96  96 97  21 97  98 99  98 100  101 102  101 103  88 104  104 105  51 106  106 107  108 109  108 110  111 112  111 113  112 114  113 115  115 116  117 118  117 119  118 120  109 121  121 122  32 123  124 125  124 126  125 127  128 129  128 130  131 132  131 133  62 134  134 135  11 41  59 136  136 137  135 137  138 139  138 140  139 141  27 141  140 142  143 144  143 145  99 146  147 148  146 148  73 149  149 150  120 151  14 151  5 123  123 152  152 153  153 154  154 155  156 157  156 158  157 159  144 160  160 161  161 162  94 163  163 164  81 165  166 167  166 168  80 167  169 170  169 171  170 172  173 174  173 175  176 177  176 178  179 180  179 181  172 182  180 183  182 183  95 184  185 186  185 187  77 188  188 189  89 190  190 191  87 192  192 193  102 194  46 195  105 195  196 197  196 198  69 199  199 200  69 197  107 201  202 203  202 204  48 203  205 206  205 207  103 206  208 209  208 210  209 211  211 212  213 214  213 215  116 216  216 217  218 219  218 220  221 222  221 223  222 224  219 223  122 225  126 225  126 226  226 227  119 227  228 229  228 230  229 231  132 232  232 233  133 234  234 235  100 235  236 237  238 239  238 240  142 241  239 242  241 242  145 243  243 244  245 246  245 247  186 246  159 248  207 249  212 249  250 251  250 252  248 251  164 253  168 254  254 255  256 257  256 258  259 260  259 261  260 262  261 263  262 264  264 265  265 266  267 268  84 267  263 269  269 270  268 270  271 272  271 273  47 230  155 274  274 275  275 276  110 277  277 278  276 279  278 280  181 184  281 282  281 283  282 284  285 286  285 287  70 288  204 289  289 290  290 291  291 292  193 293  292 294  294 295  294 296  295 297  286 298  299 300  299 301  298 302  302 303  79 304  201 304  305 306  305 307  194 306  114 210  187 308  308 309  310 311  310 312  91 214  91 309  217 313  224 313  220 314  314 315  158 316  315 316  237 257  177 317  318 319  318 320  63 321  321 322  319 322  244 323  247 323  252 324  324 325  325 326  258 327  165 328  255 328  174 255  255 329  329 330  171 330  92 331  331 332  333 334  333 335  332 334  336 337  336 338  272 339  337 339  340 341  340 342  279 343  284 343  343 344  280 345  346 347  346 348  347 349  327 349  283 350  296 351  287 352  351 353  297 354  200 354  200 355  356 357  356 358  357 359  355 360  360 361  345 362  178 363  341 364  364 365  365 366  366 367  353 368  358 368  129 240  311 369  303 370  370 371  303 312  312 372  372 373  300 373  191 374  374 375  293 371  215 376  300 376  288 377  301 377  338 378  378 379  335 380  380 381  379 382  382 383  326 383  326 381  342 384  307 384  344 385  385 386  359 386  367 387  362 388  348 389  389 390  175 390  352 391  391 392  350 393  387 394  388 394  369 395  375 395  375 396  396 397  189 398  397 398  233 399  399 400  231 233  231 401  273 401  400 402  402 403  393 404  392 404  405 406  405 407  320 406  407 408  408 409  198 409  361 410  410 411  130 411  363 412  411 412  312 413  296 414  222 415  310 416  317 417  236 418  147 419  150 420  74 421  253 422  42 423  403 424  127 425  162 426  266 427  29 428  67 429  53 430  </DataArray>
<DataArray  type="UInt32"  Name="offsets"  format="ascii">2 4 6 8 10 12 14 16 18 20 22 24 26 28 30 32 34 36 38 40 42 44 46 48 50 52 54 56 58 60 62 64 66 68 70 72 74 76 78 80 82 84 86 88 90 92 94 96 98 100 102 104 106 108 110 112 114 116 118 120 122 124 126 128 130 132 134 136 138 140 142 144 146 148 150 152 154 156 158 160 162 164 166 168 170 172 174 176 178 180 182 184 186 188 190 192 194 196 198 200 202 204 206 208 210 212 214 216 218 220 222 224 226 228 230 232 234 236 238 240 242 244 246 248 250 252 254 256 258 260 262 264 266 268 270 272 274 276 278 280 282 284 286 288 290 292 294 296 298 300 302 304 306 308 310 312 314 316 318 320 322 324 326 328 330 332 334 336 338 340 342 344 346 348 350 352 354 356 358 360 362 364 366 368 370 372 374 376 378 380 382 384 386 388 390 392 394 396 398 400 402 404 406 408 410 412 414 416 418 420 422 424 426 428 430 432 434 436 438 440 442 444 446 448 450 452 454 456 458 460 462 464 466 468 470 472 474 476 478 480 482 484 486 488 490 492 494 496 498 500 502 504 506 508 510 512 514 516 518 520 522 524 526 528 530 532 534 536 538 540 542 544 546 548 550 552 554 556 558 560 562 564 566 568 570 572 574 576 578 580 582 584 586 588 590 592 594 596 598 600 602 604 606 608 610 612 614 616 618 620 622 624 626 628 630 632 634 636 638 640 642 644 646 648 650 652 654 656 658 660 662 664 666 668 670 672 674 676 678 680 682 684 686 688 690 692 694 696 698 700 702 704 706 708 710 712 714 716 718 720 722 724 726 728 730 732 734 736 738 740 742 744 746 748 750 752 754 756 758 760 762 764 766 768 770 772 774 776 778 780 782 784 786 788 790 792 794 796 798 800 802 804 806 808 810 812 814 816 818 820 822 824 826 828 830 832 834 836 838 840 842 844 846 848 850 852 854 856 858 860 862 864 866 </DataArray>
<DataArray  type="UInt8"  Name="types"  format="ascii">3 3 3 3 3 3 3 3 3 3 3 3 3 3 3 3 3 3 3 3 3 3 3 3 3 3 3 3 3 3 3 3 3 3 3 3 3 3 3 3 3 3 3 3 3 3 3 3 3 3 3 3 3 3 3 3 3 3 3 3 3 3 3 3 3 3 3 3 3 3 3 3 3 3 3 3 3 3 3 3 3 3 3 3 3 3 3 3 3 3 3 3 3 3 3 3 3 3 3 3 3 3 3 3 3 3 3 3 3 3 3 3 3 3 3 3 3 3 3 3 3 3 3 3 3 3 3 3 3 3 3 3 3 3 3 3 3 3 3 3 3 3 3 3 3 3 3 3 3 3 3 3 3 3 3 3 3 3 3 3 3 3 3 3 3 3 3 3 3 3 3 3 3 3 3 3 3 3 3 3 3 3 3 3 3 3 3 3 3 3 3 3 3 3 3 3 3 3 3 3 3 3 3 3 3 3 3 3 3 3 3 3 3 3 3 3 3 3 3 3 3 3 3 3 3 3 3 3 3 3 3 3 3 3 3 3 3 3 3 3 3 3 3 3 3 3 3 3 3 3 3 3 3 3 3 3 3 3 3 3 3 3 3 3 3 3 3 3 3 3 3 3 3 3 3 3 3 3 3 3 3 3 3 3 3 3 3 3 3 3 3 3 3 3 3 3 3 3 3 3 3 3 3 3 3 3 3 3 3 3 3 3 3 3 3 3 3 3 3 3 3 3 3 3 3 3 3 3 3 3 3 3 3 3 3 3 3 3 3 3 3 3 3 3 3 3 3 3 3 3 3 3 3 3 3 3 3 3 3 3 3 3 3 3 3 3 3 3 3 3 3 3 3 3 3 3 3 3 3 3 3 3 3 3 3 3 3 3 3 3 3 3 3 3 3 3 3 3 3 3 3 3 3 3 3 3 3 3 3 3 3 3 3 3 3 3 3 3 3 3 3 3 3 3 3 3 3 3 3 3 3 3 3 </DataArray>
</Cells>
</Piece>
</UnstructuredGrid>
</VTKFile>