<?xml version="1.0"?>
<VTKFile type="UnstructuredGrid"  version="0.1"  >
<UnstructuredGrid>
<Piece  NumberOfPoints="661" NumberOfCells="666">
<Points>
<DataArray  type="Float64"  NumberOfComponents="3"  format="ascii">0.4561409025578587 0.5039248197504202 0.4225108484291913  0.4227502261025098 0.5422059765672108 0.3959344789950408  0.4503097338253147 0.4714766794135195 0.4417381313123329  -0.02157253220887484 0.7486744560983029 -0.3426289025211173  -0.02192364866382067 0.7471208303281682 -0.3438365984226194  0.07795727939102361 0.7790309629795541 -0.2866797059930744  -0.6622571711564049 -0.3264810155728564 0.3085356857219674  -0.6018741831815029 -0.2770628448701461 0.3099385267729843  -0.7163785577328461 -0.3359389507040312 0.3148451517240071  -0.5801295881767085 -0.2810958880595138 0.2855445034148715  -0.5793728435259626 -0.2793989436023558 0.2852198211068743  0.4169689539571617 0.5459920744026261 0.3930663940811536  0.06708799270633975 0.003533003259127362 -0.08998769000787177  0.1053855068864992 0.001081516345764179 -0.08287019651988509  0.06000017119102728 -0.003334771820591532 -0.09908273328037108  0.3032513914743439 0.8851018188692455 -0.1274013846894134  0.2834819485233023 0.8773627445090935 -0.1237705828117157  -0.09009679127836892 0.09044584107870385 0.04783591420261624  -0.107848957622977 0.09128039686035608 0.04107696078875242  0.009258153813021613 0.2248577277240299 -0.04549771778819219  0.1221440069119275 0.01285309461671343 -0.0827368682945428  -0.07335059757016682 -0.06533610290661696 -0.008140891603328315  0.007282625876793639 -0.05356809855119954 -0.07679178877020293  -0.07351348793560038 -0.06091492026068991 0.01328039892892884  0.8691369648752478 0.09317384229782914 0.3688886805014631  0.8637428729852524 0.09710140673168124 0.3752622761527924  0.9048344176925882 0.06872014934074261 0.3530690559448165  -0.02236141110123206 0.7470229639104843 -0.3445963549095139  -0.1229562207684657 -0.1051680254632625 0.04284119180410594  -0.1539261768569631 -0.1267678196317504 0.07488745850028296  -0.1178121796746542 -0.1031492546022267 0.04307080774098975  -0.1591618043609032 -0.1268175381779399 0.07407792463117352  -0.3347150539314695 -0.08699373107294729 0.6750831653776501  -0.3387488408319744 -0.09180323168103528 0.6742208057090985  -0.2913202091415747 -0.0546039530200778 0.6616294539219976  -0.3619344738035039 -0.1458925167704989 0.6381987658869703  -0.7942280065578901 -0.2565738430799251 0.4975296504095923  -0.7841456640285137 -0.2503326109373672 0.5192373522343545  -0.8102457496599323 -0.2637491699165948 0.4884052205024456  -0.1088221324324903 0.6990806423961924 -0.3776190165425942  0.5577303722508167 0.3907411663169624 -0.1624986368368346  0.5024770803356857 0.3990210546065254 -0.2292517970393221  0.5696479280389229 0.3955326077002205 -0.1648108517020882  0.5498938129726008 0.1959129436003425 -0.1737940369157452  0.5383255266101039 0.1790682360460306 -0.183721698079394  0.5725849848300283 0.2378839043246449 -0.1969925459985529  0.6928096785852972 0.6368642867988031 -0.1406858206008545  0.6738205829676961 0.6214959760005252 -0.1088072256847775  0.6027196393102907 0.5974792721839127 -0.08566521980578869  0.5841369952069758 0.567810815868196 -0.09375796903998598  0.6175207115835235 0.5978245598025618 -0.07712510070227421  0.4880038105580326 0.5743374995773085 -0.08846306371287828  0.6297931029269147 0.6004452456162541 -0.07674363063823983  -0.6795156519438013 -0.4151891032241525 0.3453052457883428  -0.6867344714152243 -0.4078370974484652 0.3489329542994933  -0.6250226303301428 -0.4660728311971561 0.3260168971092003  0.4202133678840735 0.347241661027886 -0.01381007491360061  0.4066942802771994 0.3350790471932575 -0.02457809403052677  0.4630525983639144 0.3708423861949871 0.07918499804583234  0.4362152357012907 0.3358536193188167 -0.02789859150651485  0.8720159920699173 0.1464441919421403 0.3590978477697516  0.0240206593138574 -0.04662724334245662 -0.06950579739558352  0.05302056415185546 -0.01080088938511117 -0.1017204943544399  -0.1678110410330793 0.2328832844805712 0.1402689071772656  -0.2193324995902461 0.2211303699896995 0.199242479351468  -0.09015641130661153 0.246692467459306 0.1463617735907131  -0.4352858930205815 0.2551926503097597 0.3991781840999812  -0.3665223815082913 0.2302846660969355 0.3583923274469594  -0.5065506288556338 0.2150291364885415 0.3931430462671958  0.6086991312505008 0.2273545223160469 0.1653159098188211  0.606577948346019 0.2237047413254618 0.1622987453337941  0.7073014208464758 0.1809960960271422 0.1896072854549143  0.588597695608976 0.2251927534118443 0.1321335030718184  0.2231738124676779 0.3672368082370415 -0.09697636907362585  0.1949272613545488 0.400190298791517 -0.08918678142918844  0.2651725534620292 0.3759787790914228 -0.08411074953811715  0.1773098963449878 0.4810553654171191 0.1176649821889959  0.2066054461089395 0.5005144281548419 0.1271039006245298  0.1546239941479641 0.4618283591499062 0.100633957426217  0.2842537434918871 0.8640622797678568 -0.1278020879653385  0.2677264510256707 0.8717609303922209 -0.08593757662289063  0.2780339516467837 0.8305719332968827 -0.1178857875137244  0.07742592973554685 0.7877902870793003 -0.270350330236546  0.07487696540699887 0.7899273631451561 -0.2663510056571943  0.05528680475475031 0.799477423307295 -0.2218974433385064  -0.6872923464413268 -0.1483359789077509 0.2204038489306481  -0.6433610015784343 -0.1205588387316785 0.192029133018819  -0.7351217797028768 -0.1394975750434022 0.2408707729096246  -0.6288708427651502 -0.1292877967120726 0.1309982623742168  -0.8257085110961426 -0.1327715498736699 0.4159014936869997  -0.8332554350174703 -0.1761798183617454 0.4033966439748892  -0.7731400214963554 -0.1039211082327395 0.3841819854547661  -0.7791082034383238 -0.246813095790965 0.5337967322521697  -0.1005093757301808 0.07361156836365149 0.02782898856214827  -0.1006445860782082 0.07300013487943821 0.02775695963523199  -0.6202124104321213 -0.1292028594853558 0.132244316519089  -0.5431750794051972 -0.03041011396669455 0.05365766209538748  -0.5382243452595283 -0.02704147154995591 0.04513630939016225  0.1454679699879121 0.01107441536040884 -0.09441011713305805  0.1325075501110091 0.01466898703929972 -0.0862219286735228  0.2054049452793782 -0.005187227621623795 -0.09366307963488152  0.3161560577148697 -0.1894578486209623 -0.1300752381782547  0.3222588451219742 -0.1977475327248153 -0.1329364162153097  0.2207071212283356 -0.1827857788133735 -0.04173401950694242  0.2396108182942653 0.3041685807494699 0.05369581264424488  0.2513584712938463 0.3098208228212372 0.05977123854942449  0.2155681707140755 0.2997024053210663 0.05587224722264385  0.4008720463730921 0.3401336496920931 -0.0231836714973892  -0.3810317705736476 0.13720017807919 0.2491163901482184  -0.3916702633773448 0.1266905540867431 0.2780326247271999  -0.3462277351723452 0.2145754942826027 0.2357043604596437  -0.3426338186283304 0.2699953511385953 0.3238864299966316  -0.3446293580302512 -0.2292796957947542 0.1571776891079101  -0.3418389703961214 -0.227080696570094 0.1588404101816678  -0.3465110098716315 -0.2299880967775467 0.1564076161685412  -0.3331890670310456 -0.204291439363186 0.1712369800866304  -0.7738971531515567 -0.2219612662436308 0.5512871153855268  0.2395519299548978 -0.8303908096478363 0.141803481538319  0.2380432329073266 -0.8372577316297296 0.1436205070346522  0.1940674405722934 -0.8333352290165444 0.1362472658754104  0.1288456750147501 0.3114556127512343 -0.05854676307870456  0.1734140205053126 0.4195241299072851 -0.1026533940306376  0.2175891409310551 0.4628170352529098 -0.0577248656654275  0.4552496941079135 -0.8603861428364543 0.0647209520713084  0.4143570657711931 -0.8775069359817176 0.06136197964491624  -0.1083351725155457 0.6825559918749101 -0.4063194112334549  -0.2019329833368425 -0.1191350044897705 0.08719082602069562  -0.2345465478861589 -0.1468130703141547 0.1129846965425388  -0.1850537289832672 -0.1232252910211653 0.07943467262879421  0.05531606264080823 -0.2132031058396607 0.07146428821685981  0.1147063426086309 -0.1845183294326395 0.02426383076559775  0.05163562929463539 -0.202702557163826 0.08293632017789289  -0.2746047726810816 -0.05474671677162313 0.6640569510542991  -0.270495564136374 -0.0538163571130118 0.6611500863407647  -0.2146620235836168 -0.03651861885814293 0.6907031040187591  -0.7978560825349911 -0.2138306999499499 0.3635800585546991  -0.8266619027723818 -0.2259229405003814 0.4227950951940804  -0.8011727772137989 -0.2048923571845692 0.3639152153649968  -0.8425806361541626 -0.2545510638815404 0.4404955876808337  -0.7727111257025578 -0.1987942286968611 0.342604917601793  -0.3653596429554154 -0.2636090960682651 0.1840696602561738  0.4951134925634545 0.3883299068804551 -0.2267782638550314  0.5770394205836558 0.4036863369082956 -0.106246283543751  0.5578059880002075 0.3914929828111344 -0.09366260898063013  0.6808296359612015 0.390508810859252 -0.1332034205221224  -0.7928019762295947 -0.296074604439896 0.3286640553285293  -0.7692984213609864 -0.2955296362672482 0.3124603156584672  -0.8083550236530518 -0.3020038389057735 0.3486169887106994  -0.734553305120637 -0.3150462161752163 0.3221920807365043  0.05595266211864333 0.7957961964183358 -0.2167109752460971  0.2791993033539596 0.3109673844938474 0.05426169813303054  0.3455589052619544 0.3615167707864678 -0.06451230935065214  0.2544290666812128 0.3091432380100368 0.06093996507313369  0.2655711790769424 0.3742690590915118 -0.08413478102852241  0.2862791085815681 0.3754967021421451 -0.08906088769720331  0.470447228075577 0.3697128414946591 0.08266253226106407  0.4729739631139532 0.368757640253371 0.08247515374725112  0.7291791761518429 0.1805188294654395 0.1929769166274976  0.7311613290808846 0.1802716930759411 0.2001354268147806  0.2997019599756055 0.01414904178700307 0.8093647644835875  0.3104063997787728 0.004975588363660178 0.8171672121806275  0.2636126937846872 0.005194933042373364 0.7869614974450387  0.3406889030086518 -0.003172599296619512 0.8252648807804679  0.3683623991615608 0.01474342463684304 0.8127560206363604  0.4155912331928522 0.03213786479182498 0.8415408176931928  0.2001326481273317 0.009977702724122304 0.7915847998503284  0.2275271137370192 0.08309303008972622 0.7309596619852242  0.2846169740641888 0.09255146664170603 0.6804958664733605  0.1485615115194688 0.0233815142748779 0.750055650375254  -0.2877004134687052 0.4550145165887069 -0.3480681131546253  -0.2843326245655706 0.4592362752048774 -0.3429174617101876  -0.3019218900591948 0.4922735954280649 -0.3997597428331229  -0.2759673031749647 0.444866284444968 -0.34564570293949  0.2674683620946341 0.391925439335377 -0.3402155704055121  0.3022309706624652 0.3722064195024726 -0.329597297091116  0.2516596222941388 0.4196338531653264 -0.3754960552930664  -0.2656001769369529 0.5429120155102829 -0.27873543234855  -0.278367753305964 0.5397482873195559 -0.2877543174120697  -0.2343226466177624 0.5529414053910681 -0.1922415933334243  0.8599723647744233 0.3043086659532376 -0.3327137416178847  0.8539589983098079 0.3139478797387097 -0.3250797942756149  -0.1720720382741072 0.0483778701067813 0.09843451138319757  -0.2095590331088694 -0.001861165906477925 0.09966109613362532  -0.1571816007834199 0.0720508354355387 0.08357014113199074  -0.2260285692985124 -0.008994529764647097 0.1021294211337566  -0.3268070398453101 -0.04463673754689765 0.1138858406464803  -0.2794239295900531 -0.02496147165798751 0.07736658694506102  -0.3322971604511297 -0.04960597627517749 0.1236977667022282  -0.2548927546673986 -0.02934842630183497 0.08869812836372262  -0.2406983976380933 -0.1520160304657149 0.1122706884175616  -0.2804915731639824 -0.1491290262323442 0.1393349602025704  -0.2775409787633933 0.2391241157818789 0.234602019650328  -0.2829034252279555 0.24419913859908 0.2344425761144469  -0.3416866239099574 0.2698439094528632 0.3192588785346701  0.4988692664203165 0.3753850202017413 0.7432584284896921  0.4988832395844158 0.3757236638688118 0.7431516901616352  0.5280370972109849 0.3390522403686028 0.6980504260360753  0.2978614911504001 0.0817396003457653 0.6929521129080422  0.456747295399072 0.4755657326353289 0.4776102627154869  0.467025179929886 0.4594018367269819 0.4898313788381673  0.1262235848365182 0.3110339988417993 -0.05883763235235559  0.1148386514336268 0.2890316215668803 0.08932151021898047  0.2037350016032874 0.2953552137133202 0.065602792719132  0.108624948513728 0.2783468482287696 0.08685105072991052  0.2076872000383375 0.3015507621849664 0.0634001738867257  0.0802043577350295 0.4076046909989466 -0.1144846010839016  0.2204049364511027 0.4925060745221749 0.1349504599318432  -0.1682117898738412 0.5581454476288332 0.1825199522775736  -0.1681513233958962 0.5666530456645824 0.1752081421863106  -0.1745262826636882 0.5515850955845985 0.1831832855668084  -0.04699815562459515 0.652977260604038 0.1459127426215564  -0.0829518710033347 0.6527157558002539 0.1335859134923227  -0.03917397709251376 0.6542084501816816 0.1463260271542559  0.3267321376872214 0.5124403014350073 0.2684920991564462  0.2815336314723922 0.5082524318301983 0.2697100264396662  0.3703702178644477 0.5424458787888641 0.3406060617110515  0.2739954732174927 0.5026486713105596 0.2686814720100695  0.2386108351338342 0.4847170032142611 0.2282094761882797  0.2426262321159048 0.485340585330029 0.2388101547303024  0.8103125730962427 -0.2800333206520944 -0.2871479211060596  0.7891423845613819 -0.2659216572096926 -0.2348155675374252  0.8182070280488334 -0.2893103690068504 -0.3224145486879546  0.7814722612826276 -0.2651114214818965 -0.2327359125679512  0.2637658346173598 0.7935355879617615 -0.1227672794188479  0.2092218979774123 0.7590025137441163 -0.08553669171233447  0.2205714874847874 0.8939124500582667 -0.02659737238734086  -0.3170651619586147 0.3743373845900294 0.2827371270152583  -0.2338957107893676 0.4866613420733379 0.2111755227189574  -0.3202173728054074 0.3594303190100617 0.2711891104131414  -0.3958715529464272 0.5501456675085599 -0.447989028798349  -0.316961217951402 0.5054880202245997 -0.4117284391909973  -0.3695587442091295 0.5631239394609047 -0.4377561124405099  -0.4383804454630325 0.5416948023670596 -0.4912065947466443  -0.301953362992485 0.4924132361275641 -0.3999052209229598  -0.7360964694729967 -0.1394010914145509 0.2411843689573585  -0.7658551700417173 -0.2027876316498842 0.3124006816069397  -0.7721042719462732 -0.1974779158955127 0.3375830753102431  -0.5146213600081176 0.1802671461847734 0.3703391767207678  -0.5181907869189795 0.1778430227356 0.3755189619970262  -0.4219065411442822 0.1345214306187602 0.306442834897242  -0.5236559596322499 0.1858826580072958 0.3909072819090615  -0.7443758494784662 -0.0999637955485865 0.3715342422395781  -0.7444691649002265 -0.09989531800512916 0.3716557513320013  -0.7321113239562368 -0.09096174173840091 0.3483621068661684  -0.4938064301615808 -0.09074182021077783 -0.1123345925838933  -0.4839546821947591 -0.05877203050769186 -0.04477187339980969  -0.4153014443266028 -0.07644319766782534 -0.1890440248565549  0.3225504961026108 -0.2033418521343615 -0.1377654605195778  0.3315832196237684 -0.2008099401535741 -0.1470702901845004  0.5208181850996882 0.1711940085178922 -0.1804733560069832  0.1354001931469958 -0.2012448533321625 0.01785960698334051  0.1927467994728835 -0.2059357612417372 -0.006957241480212352  -0.1138962070943208 -0.1588981352467365 0.195917287795794  -0.1497466216156004 -0.1249643141076918 0.197577297190081  -0.09256640821775182 -0.1672632843081236 0.1696535099745503  -0.1615198977956438 -0.1110269213115649 0.2019630246592742  -0.07717499857266964 -0.1687735767911866 0.1545530589640576  0.3037246148620985 0.06618063642025045 -0.1149674493634574  -0.4031010163907073 0.1263889209879258 0.2850927138724945  -0.3780025736835115 -0.1546555686720014 0.3242777037509501  -0.4199500930755756 -0.1327335985619503 0.3085556055119992  -0.321611050131587 -0.1500177073058816 0.2886589825843179  -0.4362495577341422 -0.1209982046038917 0.2970932191172375  -0.4645123732341553 -0.07538165398568741 0.339662643313879  0.1172568833292766 0.02114919844070339 0.7339399725310584  0.1075598617556833 0.01049673456033075 0.7284663189064748  0.1844784319583064 0.03204816083578232 0.7767427644799917  0.2889789498712569 -0.8640534416119422 0.1056105793518936  0.03344709199788753 0.2845426240412245 0.07748896778258994  0.05622901200770389 0.2913474980469293 0.06843319270887957  0.003291959617932359 0.2355028606819736 0.1244859916702081  0.08288694786473694 0.2766940275031061 0.07761558780277704  0.05943715359681 0.4549071800747791 0.04658420840893424  0.03908221775363761 0.4675251233081122 0.03835407259204629  -0.5554328681560962 -0.4989935095915761 0.3439270563823811  -0.492931999222185 -0.5616611077678175 0.3615813619236138  -0.5614943834120536 -0.4973079415733151 0.3429458322804397  -0.6869698031042849 -0.3884680779940017 0.3826129643655164  0.5824756491895533 0.4149712307179876 -0.1431881432117957  0.6807126829197837 0.3918221574201369 -0.1370256681224451  -0.3739776125433334 -0.1503804663895636 0.6354264833888985  -0.4134256363885497 -0.1653796315523276 0.5960564713861464  0.05100979809643175 -0.2003998992081266 0.08657073844151988  0.003071041038317048 -0.1905759526141765 0.1280300454534865  -0.02447772266699259 -0.1821993965876965 0.1497479976652017  -0.03208871825628194 -0.1852942030466826 0.151460966724862  -0.0802233139671101 -0.04852753071954656 0.03274782640571193  -0.4758902375703894 -0.5673186794383205 0.3509371915202094  -0.4546984706845204 -0.5672746543939806 0.3445240073636479  -0.4877721826915858 -0.5655653373180777 0.3613221127575313  -0.3923922939712406 -0.6298722174528701 0.3192807832450142  0.01239102587555234 -0.7809252183872055 0.1770405632077949  -0.02003232689092883 -0.7909317227945983 0.1583564431235074  0.09644444599135593 -0.7865172059730353 0.196462281049822  -0.02322855705786782 -0.7901567829672232 0.1543682006979555  -0.05111360078432202 -0.789114720521657 0.1454987823196159  -0.02676239320486162 -0.7886737264809702 0.1536382462264924  -0.05419868065335934 -0.7855239573462298 0.1528200995945579  0.5256138920044793 -0.2675216463700544 -0.2103938045936347  0.5116394417537264 -0.270379440374986 -0.2193858997827488  0.6555565357029596 -0.2367113346484244 -0.2169447498421819  -0.1715785131908188 0.6970448419840194 -0.4236832845638046  -0.2027570139122306 0.6624281793432956 -0.4291616307243944  -0.2798698679393107 0.5382099211495515 -0.2890189771890748  -0.2783966177816257 0.5386924981139444 -0.2942127295722333  -0.5926198550717198 0.4980352148027531 -0.6319597014780705  -0.550872288554514 0.5022870853021915 -0.6387930493824093  -0.504946695306578 0.503784735878312 -0.6686465029704499  -0.5153694924495494 0.5230882955483919 -0.6417036779867489  0.8273443307275167 -0.2814428710241409 -0.3245644282881492  0.4810426638120366 0.3401355226779267 0.1158920572512769  0.4956365738267829 0.2985807206878445 0.1081701666919657  0.5670188603192244 0.2232597073621242 0.1193180602485779  0.5000588017423289 0.3752757564946405 -0.09307247568457232  0.5076146841888345 0.3794271198141693 -0.09527974072510285  0.5268731154627615 0.3807808402393106 -0.1085049539686885  0.3199459477184383 0.3658995964113072 -0.28701523276523  0.3459096893927329 0.3780205622728109 -0.2806176926316364  -0.8255874050738057 -0.3002570945992599 0.369391635892073  -0.8423080042269313 -0.3090272157142254 0.4025648343707058  0.1156566048277907 0.8824449150461448 -0.0949540834233954  0.110711106041698 0.8778845477039582 -0.1047304084793929  0.1810220934777335 0.853527693008041 -0.01686744684068668  0.1103475472845353 0.8738501789296854 -0.107569583545572  0.1073944038351592 0.8490567813440871 -0.151968903258392  0.07567601489646633 0.8069167816928373 -0.1826351758018424  0.287334287197973 0.8890831842365265 0.01763231224317579  0.1849989308010349 0.8430724735730335 -0.01710149591610505  0.1740501437604491 0.783147398447013 0.01322847220926139  0.373793688758384 0.5347006939822951 -0.05862713021375136  0.4054770703589607 0.5358924337985005 -0.07358583396686155  0.3388198179543386 0.5116005410378804 -0.07327720748148724  0.4364363077090589 0.525250250430024 -0.07159314790083814  0.4855167988799898 0.5732741229132755 -0.08975538651666037  0.08197458077350721 0.02016346982715876 0.7387740081666221  0.7982046739645818 0.1938039106442365 0.2740961570584056  0.7833315874744103 0.203285721399779 0.2658780616153152  0.8029106899146946 0.193879223962201 0.2810808825330447  0.4345527865604258 0.03880744758574968 0.8542915410158569  0.476497828917986 0.01806837620135952 0.8265244353279623  0.3820036336322536 0.1463766446170374 0.6954826440186347  0.4109763784038258 0.1635354400690456 0.712507839534917  0.3677458286515463 0.1251001535182963 0.6991896723291565  0.4495728315829412 0.1459474916992695 0.7059367400389378  0.4736658222330773 0.1293370986040061 0.697762075079289  0.4900232266067049 0.1182753203312072 0.6998596698122678  0.5575871173207401 0.2178207957210099 0.7419572580461642  -0.1731387716312568 -0.08680345659074891 -0.3501705028046607  -0.1159242429278216 -0.06484601649170499 -0.3471051716351634  -0.1820215955852257 -0.08755564213024539 -0.3493645171371426  -0.2326651935766632 0.3953421014869591 -0.2826573103414224  -0.2207652400168504 0.393657680347007 -0.2750601407936898  -0.2489047176571483 0.409053723990947 -0.3213584784079482  -0.1646776417119353 0.3930383458163316 -0.2574246319633184  0.2272579490112404 0.4499675144822842 -0.3635378129623659  0.1809895267522629 0.4078834590768798 -0.3862765647389591  0.1781292904242958 0.4055928643319276 -0.3859931884713569  -0.2283758719132301 0.5589112544391666 -0.1815585829949171  0.3443030856841141 0.1165502260482905 0.7017143663110024  0.4674190964778897 0.4535911654026267 0.4951355109356364  0.4953885994240759 0.4139107783493057 0.5934500792962266  0.499533574616336 0.4068815742939443 0.5955021477369501  -0.08278546046483279 0.2547286750415008 0.1423975819301888  -0.07311497979536843 0.2480414199974599 0.1345343343940992  -0.03611098762705203 0.234198581106866 0.1283411645504743  -0.01176315752070416 0.2312554117502896 0.118686072019496  -0.1905958792803648 0.4080559603422922 0.0006142299206550461  -0.1272129741013139 0.4397046182809137 -0.02360451470537402  -0.2595170766020622 0.3802814653816973 0.02714149168875135  -0.006245758733696566 0.5098984635688428 -0.00988982031397536  -0.002782525709001633 0.5000619231045385 0.02067202642625943  -0.07110763017784985 0.5176639641853211 -0.03298385850318075  -0.09648469806620194 0.5030578411057598 -0.02092433931793246  -0.1150770391425828 0.4714375256015938 -0.02749802585280694  -0.08521038982657536 0.511718140486852 -0.03278142922340818  0.04337326626885781 0.3853890609910551 -0.1414527752927977  0.02199408893215189 0.4681298991077625 0.0284644500617756  0.03837215237823988 0.4677367698942972 0.03753551356980564  -0.1178463766126327 0.5755555264431502 0.1442663154253374  -0.1074866050442287 0.5846667118433546 0.1389996815410247  -0.09397739049250101 0.6123379354305267 0.1345304991142364  -0.1745906887727146 0.5515599004497369 0.1831539611493321  -0.1952739109838634 0.5343661539362677 0.2029987676868819  -0.2288037593638302 0.5054349019183929 0.2097681569413045  -0.2339196595093264 0.5009119533786769 0.2081920725335926  -0.2897447021555809 0.3355450535884584 0.1410494681488736  -0.2685856835271871 0.3399970579135431 0.05647861096426381  -0.3016696555185988 0.3225008736927633 0.1574247808379384  -0.2706471717262973 0.3579369925650686 0.03267756638469278  -0.2733682454287086 0.3653417953651307 0.02964233171075957  -0.2697269652808101 0.3765403445565634 0.02650496324938971  -0.3699773151412978 0.6072677266252318 -0.3809815691240526  -0.2330505153813019 0.6242894075567589 -0.4936977875964584  -0.4530585586657943 0.1662320526243868 0.1869172029861889  -0.4523330118575125 0.1691281204501684 0.1867362062044259  -0.5181154344675351 0.1360729250908108 0.1951562088465977  -0.437411618251251 0.2257001991143552 0.1843803673276662  -0.9037827707331525 -0.04065719216471208 0.4143778385251977  -0.901821238885629 -0.03262919740795775 0.412821903505476  -0.7662996048611647 -0.1029893200743876 0.3788284002110326  -0.9010117089605936 -0.03131204628642723 0.4140807812266328  -0.8142851242698959 0.05408052948606456 0.4308956910917601  -0.7705619947338894 0.08284451418379142 0.4091026839850026  -0.5244180753187999 0.1773901099100522 0.4014138743322201  -0.517092329087118 0.185621525147637 0.4086390728084012  -0.6329103864124297 0.1615867003501105 0.4379820094961182  -0.6738501789390721 0.1293042026752571 0.4336480668340726  -0.5569515697155322 0.1602435318727229 0.4275527171138545  -0.4843630163587628 -0.05939757130993568 -0.04170408518462173  -0.5148752701748043 -0.05220172971276375 0.03114382721232956  -0.5377976357175983 -0.03084755539261076 0.03963068580626915  0.4235480480018242 -0.2478842290561954 -0.2075160153299195  0.8216115435200491 0.3270640528626932 -0.2955510128091817  0.8059913818200097 0.3044316189927319 -0.2592494607136804  0.8218912161009234 0.32754053198818 -0.2959386891401309  0.6769469638340797 0.3027201562615561 -0.2292125902096214  0.6708953606778678 0.2931725251693753 -0.233817574333985  0.7451533826141294 0.194960442878476 0.2263968178995646  0.7361522962165281 0.1838582001260282 0.2119441758604794  -0.4829629702357325 -0.2514737880445738 0.2478187642046167  -0.4778065319864326 -0.1546323276312291 0.2304736123825374  -0.4919078881135999 -0.1971417725701443 0.2264708861917356  -0.4071555582074504 -0.1097545135441857 0.2067763762964429  -0.4996484257563548 -0.220211561362701 0.2423740884461619  -0.5511822880734348 -0.2682545688549544 0.2857872130888164  -0.5367632186822487 -0.2615764542377227 0.2829513623260304  -0.5248140924166925 -0.2527127689020031 0.2699580693071432  -0.4648426284922835 -0.07312307319316172 0.3402503022648943  -0.4997034434174052 -0.07626040955736833 0.350443282684513  -0.5558664561659192 -0.05323799339711596 0.3232762075996616  -0.3004263961208165 -0.1610458194174955 0.2887727192633433  -0.319356911900663 -0.15020243583851 0.2897376977074879  -0.2547693583276306 -0.1178190401797582 0.2819854930757739  -0.3328194246982495 -0.2045643707832589 0.1714146108516157  -0.4066382515047797 -0.06738597860338941 0.1748644580167401  -0.3396615881049654 -0.05562148749403174 0.1233337222005764  -0.4088586374642993 -0.09211853481455047 0.1851659137140234  0.191423048099168 -0.2018082646092114 -0.001786788330156427  0.2941257088796868 -0.857240539022877 0.1009109037900412  0.3287691483127319 -0.8496260573090261 0.09064770201712608  0.1871184195452147 -0.8282969698642301 0.1397173413832732  0.1081640077083008 -0.7830039941298578 0.1972788247116382  0.6623048332287282 0.2853839888768912 -0.2201443151525245  0.6612531161840967 0.2827714221435411 -0.2192748681336249  -0.2645399542651886 -0.6472511942135503 0.2115614917653034  -0.2330717827292181 -0.6306553468645156 0.2009269062560106  -0.2754950968137493 -0.6498358981726547 0.2111953876365623  -0.2046388253458915 -0.6424410124015708 0.2004457945495132  -0.3341212000398488 -0.581984815800182 0.2611631533459288  -0.2965860709218495 -0.6219570026482615 0.2241896127862752  -0.3385476774585632 -0.5923256556299447 0.287142447934258  -0.388094042571815 -0.6290524299199945 0.3237202515720838  0.4922387177212958 -0.2405188777144788 -0.217083138696318  0.5025343917550107 -0.2593925316742886 -0.2116226072926436  -0.3307064625200904 0.6358297455520894 -0.5368098528000423  -0.4068879850970432 0.574711185029952 -0.5162371662182967  -0.3283903604125684 0.6353825552897541 -0.5409551236903158  -0.4393533292407726 0.4490579309194696 -0.6806390536381466  -0.4445325600018244 0.531840612342893 -0.4944964352845376  -0.4407429736845708 0.5415747236901131 -0.4909404148779506  0.5069865052316631 0.1383222880248962 -0.1796354899289196  0.5065363683229149 0.1372259167054105 -0.1795082630071692  0.3567325615355189 0.08226092555454073 -0.1479480504236503  0.3486159041164829 0.06843199923759738 -0.1305153562705842  0.3107473254721597 0.06344666655290537 -0.1189947612037262  0.4021775482279678 0.3920723503505002 -0.2069793995370748  0.3545127763142883 0.3875939923382536 -0.2758499986391476  0.7023148151212908 0.4156113916904094 -0.1404203208826524  0.7079421059023761 0.420932216646294 -0.1389711736865261  0.186429381068535 0.7742105031695238 -0.05450438442617033  0.179968624010893 0.7549205425306649 -0.02959936199796163  0.2201362723867944 0.4754999545292172 -0.05096328541357528  0.2167103393677886 0.4673864536314543 -0.05705295493355717  0.3171476436557329 0.5071964826530747 -0.08253840071087776  0.2168305986919272 0.4670727755627311 -0.05745569497734239  0.479429347925008 0.02200886963134652 0.8650467537899689  -0.07997759261014831 -0.05196882778190449 -0.4150183010999395  -0.2088810605605676 -0.1219233088710365 -0.31640986779821  -0.2391987500735695 -0.1397373669952626 -0.3141320961690364  -0.2460212546671807 -0.1425307641187051 -0.3094576457959565  -0.2486986542603635 -0.1423128776362957 -0.303123191039439  -0.3699778161113788 -0.09298662531471398 -0.2664180520969892  -0.03079404560825434 0.6193123415183442 -0.07431509168721483  0.001201180326110843 0.6298632067650016 -0.0704445043699149  -0.07897256053426056 0.5161350658191917 -0.02809387501936904  -0.1872086359518686 0.5826420191017544 -0.1159401764320539  -0.4231020756901056 0.2387341280592752 0.1674883732155783  -0.3445577455067594 0.2577679655193105 0.1633970856552025  -0.4258721997734729 0.2370123716596471 0.1694057171224097  -0.302433267106583 0.2295213058788425 0.226109619271073  -0.2955417169484197 0.2884299600882143 0.31361616162853  0.5068484825556043 0.4064026828006735 0.6023222980402505  0.5161905536043415 0.3873982655554417 0.6107731626951891  0.5278267778766257 0.3425491217633658 0.6881695023828686  0.006118975796229081 0.2333513905707115 -0.05046986762086424  0.006085508212828661 0.2293128277575844 -0.05076639663701898  0.008781439747969924 0.266249618860274 -0.05198397669269104  0.08284621754468799 0.4670494336483289 -0.4033880593505473  0.03203451283605341 0.4202342045715208 -0.4270639686848522  0.02821005767317619 0.4239973698544673 -0.4446927132401011  0.03113491224845699 0.3901538382759472 -0.148855933371262  0.01240620558595625 0.2699371774918723 -0.04732333288122702  0.0475678942125725 0.2771539253995866 -0.04455837998219907  0.02928841506141014 0.3893248886514323 -0.1486028535380591  0.02808931848946732 0.388515022287518 -0.1496844596061677  0.1192076717679085 0.3116048301996216 -0.05640388362323114  0.09509399422266901 0.2965212616705046 -0.04932980808837939  0.04995290959781079 0.7108395641008011 0.06869856808865515  0.673693588300309 -0.2394635142396598 -0.2304511517579019  0.7688284699434603 -0.2647410223928665 -0.2330947501418621  0.6694662680879198 -0.2328780255241128 -0.2290358875360177  -0.285101575465462 0.6218015853543921 -0.5115040698256756  -0.5926921552679131 -0.06883920918751182 0.3107436577188563  -0.5630035606688315 -0.05745707064494882 0.315410946270462  -0.6907866640326915 -0.09571143437863057 0.3441436046784708  -0.6928415869975936 -0.01726492762783928 0.2869050478117293  -0.728003992977555 -0.06009211384365214 0.3232193500051367  -0.6545748049915693 0.04782509923369064 0.2883848522313983  -0.7317443921945733 -0.09088029480709341 0.3463187344788369  -0.648439156359267 0.06647853538736352 0.2730991946304846  -0.6197137188259748 0.06648325660037661 0.2664848540015012  -0.5770259382532807 0.05530270923021605 0.2383870184463066  -0.5598810995895217 0.06384811025304708 0.2345156484051992  -0.5828748849254902 0.05781858147629532 0.2644512256680868  -0.5284263541395124 0.1235464758659256 0.1866696935859054  -0.7517976192562867 0.08013440198639862 0.4022268719389037  -0.7082862648620841 0.121946236033984 0.4113883653820521  -0.7663455606266038 0.08440298342415277 0.404425947068099  -0.6803624347290438 0.1246361479482865 0.4264168316219489  -0.1878730529940111 0.5814016080387652 -0.15054072048482  -0.2103737976911361 0.5620081009391712 -0.1681472916168637  -0.1878236768647827 0.582794381437215 -0.1517648250977023  0.3564448962996178 -0.8719532027535973 0.09832439455296639  0.3565701738837999 -0.8714921671215193 0.09834432770925727  0.3343394166784273 0.05491269243388786 -0.1375078149798113  -0.5031158144732981 -0.2304624679435947 0.2551936504279588  -0.4878133418845964 -0.2502650943735439 0.2527994599580304  -0.4440749551292168 -0.1890854923966439 0.5747030549737059  -0.1903692278836932 -0.1078355338649869 0.2104007185516427  0.1481601549021617 -0.2132985925693373 0.009085252695013327  -0.6811798544186188 -0.3202313027502622 0.5157183163747291  -0.6751179937054075 -0.3219214283708942 0.5077842310711072  -0.7160567293064484 -0.333735038411735 0.49670784591407  -0.702935163286091 -0.3691146412579438 0.3912318112281591  -0.6978405932397523 -0.3744644969955984 0.386833470366182  -0.7637298654317621 -0.3674958435051797 0.4281248412196291  -0.688824570504202 -0.3819125301630841 0.382765557777923  -0.6755011980047633 -0.3177960286963218 0.5089912887127561  -0.5992083083549754 -0.477503114617304 0.3086717471615801  -0.599383954390676 -0.4741051606489283 0.3122887031153486  -0.1289481617061242 -0.6673220441575237 0.1556348214288745  -0.1769939336312266 -0.6452417227045437 0.1682040458775202  -0.1830162813539387 -0.6473060517124706 0.1707442540668088  -0.3274268923117789 0.4747674737378818 -0.6823700229782289  -0.3029017014442641 0.4957507543116577 -0.6843580767953253  -0.365886207130823 0.4517816423960193 -0.6738230402820286  0.8400810388034817 0.3187124865859057 -0.3076869774320891  0.7377820709493372 0.4377614477439598 -0.1009651868146224  0.8535701154919646 0.4616747706141615 -0.08295943426256087  0.815325373856677 0.4339071602839352 -0.06425632375705315  -0.8386345696991098 -0.2690258330505229 0.4629687541912527  -0.8395515263708171 -0.3225658756205993 0.415732559152795  0.01481890462339346 0.6439469910401581 -0.04976404783171533  0.03286207283845316 0.6841818969253298 -0.03324983228066093  0.09150146199916488 0.7420955684229265 -0.03351868118073259  0.05459088872356712 0.7310890779577965 -0.03826893529000082  0.04234678835943163 0.7234899384607364 -0.04201921866889617  0.03855607021623919 0.7224919663146223 -0.04096325982267629  0.05458711016257482 0.7181103460135393 0.0692785346564951  -0.1031745583028956 0.02618281942006861 0.7080518286388842  -0.1028441344415323 0.03448213053500193 0.7115968994987003  -0.1203378790424313 0.01476973644825969 0.6981414477786835  -0.03129649430866235 0.06134347310017654 0.7008376048255665  4.584124247009741e-05 0.07908889071920779 0.7149209742272737  0.8110796002622798 0.1810689145452437 0.3016466623413233  -0.3722276371636775 -0.09424374793161981 -0.2628651030337734  -0.3812011729349367 -0.09291446612586679 -0.2401382291878386  -0.4021659909594406 -0.08904148697735764 -0.1958306838050696  -0.4131140342888023 -0.08518009065747165 -0.1937541799311022  -0.06435860550413663 -0.06510266210810671 -0.4176840896524573  -0.05030437329821982 -0.06435034348574076 -0.4182177988910352  0.1082090197182363 -0.06404005919876347 -0.5212926951791415  0.1125269684154546 -0.0622411850956677 -0.5008717860293572  0.1201968610033055 -0.08941160923155084 -0.5838160923550033  0.1124232481416143 -0.06257081836985137 -0.4971708307130799  -0.01741229301643145 0.4247423843454362 -0.494596369899803  -0.006688449589706991 0.4226447681436639 -0.494003431306397  -0.1058562184945556 0.4614231919660732 -0.5224289664235945  0.007352539813452685 0.4389561254314402 -0.4748746976590485  0.007221254048240547 0.3841313829022265 -0.1617377825712085  -0.07311805440055165 0.3637900371756965 -0.2286087677260101  -0.004409568470996765 0.3776382794710743 -0.1797823303806026  -0.09234096822810094 0.379031362992764 -0.2552953170906426  0.06725568667623026 0.7718162710726449 0.03940965236730111  0.1747125723369592 0.7692401273201854 0.003748417687406636  -0.2729337517539779 0.4883240829288487 -0.6785448182741326  -0.2576067706958201 0.4987459168237331 -0.6661883475259405  -0.2489690040456187 0.489782777859997 -0.6501430630817721  0.03649168764783144 -0.06185262952419157 -0.4418268678198545  0.8135828948892893 0.430871880154645 -0.0642954628571296  -0.7725355189491339 -0.3643359275703731 0.4286193659282374  -0.7201029406377967 -0.2226171462109907 0.5710822652117415  0.3222493585392086 -0.1538780461734452 -0.756881381340427  0.2801877727033961 -0.1386404040854775 -0.7695020662282974  0.3411531814497875 -0.1484761480056332 -0.7476779411017617  -0.4392616307392362 0.4509250662394614 -0.6845109000538518  -0.3670729750949543 0.4518544960784383 -0.6731311831078683  0.134018137940129 -0.1071896269511356 -0.6108547537190659  -0.1164300848318053 0.4972969985604752 -0.5487264775559938  -0.1643894076868685 0.4843802238405708 -0.618028062898438  -0.1092413723570793 0.4732090680529343 -0.5357839893220364  -0.1744193578444125 0.482718939564938 -0.62919617338656  -0.0008190887433913441 0.3779923118782158 -0.1623762805538892  -0.002949105694337296 0.3771455147881543 -0.1757201755262451  -0.1619469381978925 0.3781282128734147 -0.2510515082490737  -0.1522035303829787 0.3809848359354746 -0.2446932354443984  -0.1321008868078284 0.3720966022469521 -0.2448259775718942  -0.4603245775338362 -0.2213032684207617 0.5784387849274498  -0.5306614227923147 -0.1867263621786571 0.5898440090442476  -0.4488831399515974 -0.2464398653172536 0.5391934889942732  -0.5477874173346773 -0.1850149386647475 0.5797676780772623  -0.4858232313729003 -0.2466027732506816 0.5100732871688705  -0.5333624382582025 -0.2313998207002889 0.5021321032715514  0.1115002370479867 -0.06330706790776676 -0.4963890120856245  -0.134700553657878 -0.0112175608015435 0.6990800897171338  -0.1350194084365016 -0.0135760730474451 0.6900990945783709  -0.174961506582575 -0.03562102225217384 0.7046552508671933  -0.8278266347748665 -0.33402767311589 0.4143746595261386  -0.762984719966924 -0.3648014834742626 0.4352281485190718  0.1883624619839341 -0.1546119508480601 -0.6896708447936083  0.3837638926488301 -0.1318539727430926 -0.7682470367060086  0.3968506786207361 -0.1262559764450164 -0.7791449088369948  -0.5920914521264661 -0.2865985516307801 0.4777611782028712  -0.6609494872534416 -0.2355869348620949 0.6106337382250495  -0.6858795262833743 -0.2194999551408131 0.6094446816291307  -0.6906215102576692 -0.2132632601738337 0.6082864211334487  0.4558146711756361 -0.1553004958750214 -0.8426737198798993  0.4386436788618036 -0.1422855270763197 -0.8232526720604243  0.1887082108255053 -0.1553244085020118 -0.688286440715697  0.1800391463817959 -0.1247826794784357 -0.636501749982005  0.1606999255232581 -0.1290557908402077 -0.6141571808230157  0.4253468937993494 -0.1372513968291146 -0.794497131339454  0.3993459761769167 -0.1281816080885847 -0.7798994097929777  0.4141956679758045 -0.1344293256385167 -0.789035839047509  0.4005940355023541 -0.1283492212173898 -0.779887909951866  -0.5834498629022404 0.4537286162593393 -0.6734364188746715  -0.9190028829313522 -0.0868543759944127 0.3843046038424265  -0.843118210457886 -0.2485167356777535 0.4766457020496099  -0.8853389302010568 -0.2630309596221681 0.3831314434377447  0.860675936834171 0.5003313716401826 -0.09330305625902935  0.3201597441165217 0.9448822409087384 -0.06704699145020653  0.9153984410080537 0.05143887001954647 0.3989984296349262  0.5241913518519096 0.3465139276475548 0.7777863039356843  0.8826588596838693 -0.3258063234885099 -0.338472431663898  0.7579883864967545 0.6456529480632978 -0.09157448658452406  0.5117360510965326 -0.004627613435096892 0.8590138585622599  0.454134441935219 -0.8862572826914688 0.09005524706823735  0.5003084581857726 -0.1699643643258837 -0.8488837208517273  0.9054809159784292 0.2679789758417466 -0.3287728536629407  0.2676225973490813 0.9603447142487339 0.07691674201790401  0.5763637567547123 0.1757762166701322 0.7979395663536992  </DataArray>
</Points>
<Cells>
<DataArray  type="UInt32"  Name="connectivity"  format="ascii">0 1  0 2  3 4  3 5  6 7  6 8  7 9  9 10  1 11  12 13  12 14  15 16  17 18  17 19  13 20  21 22  21 23  24 25  24 26  4 27  28 29  28 30  29 31  32 33  32 34  33 35  36 37  36 38  27 39  40 41  40 42  43 44  43 45  46 47  48 49  48 50  49 51  50 52  53 54  53 55  56 57  56 58  56 59  25 60  22 61  61 62  63 64  63 65  66 67  66 68  69 70  69 71  70 72  73 74  73 75  76 77  76 78  16 79  16 80  79 81  5 82  82 83  83 84  85 86  85 87  86 88  89 90  89 91  37 92  18 93  93 94  88 95  95 96  96 97  98 99  98 100  101 102  101 103  104 105  104 106  57 107  108 109  108 110  67 111  112 113  112 114  113 115  92 116  117 118  117 119  74 120  74 121  74 122  123 124  39 125  126 127  126 128  129 130  129 131  34 132  132 133  133 134  135 136  135 137  90 136  136 138  137 139  114 140  41 141  142 143  142 144  145 146  145 147  146 148  8 148  84 149  107 150  107 151  150 152  75 153  153 154  105 152  58 155  155 156  71 157  157 158  159 160  159 161  160 162  162 163  163 164  161 165  166 167  166 168  169 170  169 171  170 172  173 174  173 175  176 177  176 178  179 180  181 182  181 183  182 184  94 183  185 186  185 187  186 188  184 188  127 189  189 190  64 191  191 192  111 193  194 195  195 196  167 197  2 198  198 199  120 200  201 202  201 203  106 204  202 204  121 205  77 206  207 208  207 209  210 211  210 212  213 214  213 215  214 216  206 217  217 218  216 218  47 52  219 220  219 221  220 222  81 223  223 224  80 225  226 227  226 228  229 230  229 231  229 232  171 233  87 234  234 235  235 236  139 236  237 238  237 239  238 240  241 242  241 243  244 245  244 246  102 247  247 248  44 249  20 99  130 250  103 251  252 253  252 254  253 255  254 256  100 257  109 258  239 258  259 260  259 261  260 262  262 263  168 264  264 265  168 266  165 266  118 267  268 269  268 270  269 271  78 272  272 273  274 275  274 276  54 277  42 278  278 279  35 280  280 281  31 128  131 282  282 283  283 284  256 285  284 285  30 286  23 286  287 288  287 289  288 290  291 292  291 293  292 294  295 296  295 297  294 296  298 299  298 300  125 301  301 302  177 303  303 304  305 306  306 307  306 308  221 309  156 310  310 311  72 312  59 313  313 314  314 315  143 315  174 316  316 317  147 318  318 319  320 321  320 322  321 323  323 324  324 325  225 326  225 327  322 327  327 328  329 330  329 331  330 332  332 333  51 333  265 334  335 336  335 337  164 338  338 339  340 341  340 342  341 343  343 344  344 345  345 346  347 348  347 349  350 351  350 352  351 353  354 355  175 354  355 356  178 357  197 358  342 358  199 359  359 360  360 361  65 362  362 363  363 364  270 365  364 365  366 367  366 368  369 370  369 371  372 373  372 374  367 373  205 375  11 215  370 376  376 377  273 377  208 378  378 379  379 380  211 380  209 381  381 382  382 383  383 384  227 384  385 386  385 387  386 388  388 389  389 390  368 390  230 233  231 391  304 391  302 392  393 394  393 395  394 396  397 398  397 399  398 400  400 401  401 402  91 399  242 399  240 403  68 404  405 406  405 407  245 408  408 409  409 410  97 410  248 411  412 413  412 414  413 415  415 416  336 417  417 418  140 419  420 421  420 422  421 423  10 424  424 425  425 426  263 427  427 428  428 429  430 431  430 432  261 431  190 433  434 435  434 436  115 433  187 435  422 436  251 437  267 438  438 439  119 440  440 441  293 441  275 289  416 442  442 443  45 443  444 445  444 446  445 447  448 449  448 450  446 449  290 451  411 452  452 453  299 453  14 62  454 455  454 456  307 457  308 458  458 459  232 455  232 459  311 312  249 460  460 461  461 462  462 463  257 464  465 466  141 465  317 466  279 467  467 468  144 279  224 469  469 470  149 325  471 472  471 473  122 474  472 474  331 473  151 154  158 418  339 475  348 476  349 477  477 478  478 479  479 480  480 481  371 482  482 483  371 484  374 484  374 485  486 487  486 488  387 487  396 488  110 489  192 489  228 490  193 490  361 491  491 492  492 493  196 493  203 271  494 495  494 496  19 495  356 497  497 498  498 499  375 500  496 501  501 502  500 503  503 504  200 505  505 506  212 507  508 509  508 510  222 509  300 510  392 511  456 511  512 513  512 514  429 513  515 516  515 517  514 518  516 518  243 518  517 519  519 520  521 522  521 523  395 524  522 524  520 523  525 526  525 527  526 528  406 528  402 527  485 529  357 530  529 531  530 531  439 532  124 533  532 533  463 534  464 534  426 535  419 536  535 536  423 535  281 537  432 538  255 538  250 539  437 539  540 541  540 542  543 544  543 545  544 546  277 546  541 547  276 548  548 549  55 549  297 550  550 551  551 552  447 552  450 451  553 554  553 555  414 556  180 556  468 557  558 559  138 560  319 561  483 562  562 563  470 564  564 565  565 566  566 567  507 568  563 567  569 570  569 571  570 572  572 573  334 573  337 574  60 574  481 575  575 576  576 577  577 578  246 578  476 579  579 580  581 582  581 583  582 584  585 586  585 587  586 588  499 588  504 589  590 591  590 592  568 593  328 594  593 594  595 596  554 595  596 597  580 598  502 506  559 599  557 599  545 600  116 601  602 603  602 604  457 605  605 606  555 606  583 607  172 352  608 609  608 610  609 611  587 610  597 611  589 612  612 613  591 613  614 615  353 614  615 616  592 616  537 617  617 618  617 619  618 620  619 621  621 622  598 623  584 623  403 404  403 407  571 624  624 625  625 626  134 626  600 627  561 627  600 628  560 561  38 560  542 628  603 629  604 630  630 631  622 632  547 632  620 633  633 634  634 635  601 635  636 637  629 638  638 639  607 640  639 640  637 641  631 642  641 643  643 644  642 644  305 645  397 646  560 647  319 648  558 649  15 650  26 651  194 652  309 653  46 654  475 655  123 656  636 657  179 658  326 659  346 660  </DataArray>
<DataArray  type="UInt32"  Name="offsets"  format="ascii">2 4 6 8 10 12 14 16 18 20 22 24 26 28 30 32 34 36 38 40 42 44 46 48 50 52 54 56 58 60 62 64 66 68 70 72 74 76 78 80 82 84 86 88 90 92 94 96 98 100 102 104 106 108 110 112 114 116 118 120 122 124 126 128 130 132 134 136 138 140 142 144 146 148 150 152 154 156 158 160 162 164 166 168 170 172 174 176 178 180 182 184 186 188 190 192 194 196 198 200 202 204 206 208 210 212 214 216 218 220 222 224 226 228 230 232 234 236 238 240 242 244 246 248 250 252 254 256 258 260 262 264 266 268 270 272 274 276 278 280 282 284 286 288 290 292 294 296 298 300 302 304 306 308 310 312 314 316 318 320 322 324 326 328 330 332 334 336 338 340 342 344 346 348 350 352 354 356 358 360 362 364 366 368 370 372 374 376 378 380 382 384 386 388 390 392 394 396 398 400 402 404 406 408 410 412 414 416 418 420 422 424 426 428 430 432 434 436 438 440 442 444 446 448 450 452 454 456 458 460 462 464 466 468 470 472 474 476 478 480 482 484 486 488 490 492 494 496 498 500 502 504 506 508 510 512 514 516 518 520 522 524 526 528 530 532 534 536 538 540 542 544 546 548 550 552 554 556 558 560 562 564 566 568 570 572 574 576 578 580 582 584 586 588 590 592 594 596 598 600 602 604 606 608 610 612 614 616 618 620 622 624 626 628 630 632 634 636 638 640 642 644 646 648 650 652 654 656 658 660 662 664 666 668 670 672 674 676 678 680 682 684 686 688 690 692 694 696 698 700 702 704 706 708 710 712 714 716 718 720 722 724 726 728 730 732 734 736 738 740 742 744 746 748 750 752 754 756 758 760 762 764 766 768 770 772 774 776 778 780 782 784 786 788 790 792 794 796 798 800 802 804 806 808 810 812 814 816 818 820 822 824 826 828 830 832 834 836 838 840 842 844 846 848 850 852 854 856 858 860 862 864 866 868 870 872 874 876 878 880 882 884 886 888 890 892 894 896 898 900 902 904 906 908 910 912 914 916 918 920 922 924 926 928 930 932 934 936 938 940 942 944 946 948 950 952 954 956 958 960 962 964 966 968 970 972 974 976 978 980 982 984 986 988 990 992 994 996 998 1000 1002 1004 1006 1008 1010 1012 1014 1016 1018 1020 1022 1024 1026 1028 1030 1032 1034 1036 1038 1040 1042 1044 1046 1048 1050 1052 1054 1056 1058 1060 1062 1064 1066 1068 1070 1072 1074 1076 1078 1080 1082 1084 1086 1088 1090 1092 1094 1096 1098 1100 1102 1104 1106 1108 1110 1112 1114 1116 1118 1120 1122 1124 1126 1128 1130 1132 1134 1136 1138 1140 1142 1144 1146 1148 1150 1152 1154 1156 1158 1160 1162 1164 1166 1168 1170 1172 1174 1176 1178 1180 1182 1184 1186 1188 1190 1192 1194 1196 1198 1200 1202 1204 1206 1208 1210 1212 1214 1216 1218 1220 1222 1224 1226 1228 1230 1232 1234 1236 1238 1240 1242 1244 1246 1248 1250 1252 1254 1256 1258 1260 1262 1264 1266 1268 1270 1272 1274 1276 1278 1280 1282 1284 1286 1288 1290 1292 1294 1296 1298 1300 1302 1304 1306 1308 1310 1312 1314 1316 1318 1320 1322 1324 1326 1328 1330 1332 </DataArray>
<DataArray  type="UInt8"  Name="types"  format="ascii">3 3 3 3 3 3 3 3 3 3 3 3 3 3 3 3 3 3 3 3 3 3 3 3 3 3 3 3 3 3 3 3 3 3 3 3 3 3 3 3 3 3 3 3 3 3 3 3 3 3 3 3 3 3 3 3 3 3 3 3 3 3 3 3 3 3 3 3 3 3 3 3 3 3 3 3 3 3 3 3 3 3 3 3 3 3 3 3 3 3 3 3 3 3 3 3 3 3 3 3 3 3 3 3 3 3 3 3 3 3 3 3 3 3 3 3 3 3 3 3 3 3 3 3 3 3 3 3 3 3 3 3 3 3 3 3 3 3 3 3 3 3 3 3 3 3 3 3 3 3 3 3 3 3 3 3 3 3 3 3 3 3 3 3 3 3 3 3 3 3 3 3 3 3 3 3 3 3 3 3 3 3 3 3 3 3 3 3 3 3 3 3 3 3 3 3 3 3 3 3 3 3 3 3 3 3 3 3 3 3 3 3 3 3 3 3 3 3 3 3 3 3 3 3 3 3 3 3 3 3 3 3 3 3 3 3 3 3 3 3 3 3 3 3 3 3 3 3 3 3 3 3 3 3 3 3 3 3 3 3 3 3 3 3 3 3 3 3 3 3 3 3 3 3 3 3 3 3 3 3 3 3 3 3 3 3 3 3 3 3 3 3 3 3 3 3 3 3 3 3 3 3 3 3 3 3 3 3 3 3 3 3 3 3 3 3 3 3 3 3 3 3 3 3 3 3 3 3 3 3 3 3 3 3 3 3 3 3 3 3 3 3 3 3 3 3 3 3 3 3 3 3 3 3 3 3 3 3 3 3 3 3 3 3 3 3 3 3 3 3 3 3 3 3 3 3 3 3 3 3 3 3 3 3 3 3 3 3 3 3 3 3 3 3 3 3 3 3 3 3 3 3 3 3 3 3 3 3 3 3 3 3 3 3 3 3 3 3 3 3 3 3 3 3 3 3 3 3 3 3 3 3 3 3 3 3 3 3 3 3 3 3 3 3 3 3 3 3 3 3 3 3 3 3 3 3 3 3 3 3 3 3 3 3 3 3 3 3 3 3 3 3 3 3 3 3 3 3 3 3 3 3 3 3 3 3 3 3 3 3 3 3 3 3 3 3 3 3 3 3 3 3 3 3 3 3 3 3 3 3 3 3 3 3 3 3 3 3 3 3 3 3 3 3 3 3 3 3 3 3 3 3 3 3 3 3 3 3 3 3 3 3 3 3 3 3 3 3 3 3 3 3 3 3 3 3 3 3 3 3 3 3 3 3 3 3 3 3 3 3 3 3 3 3 3 3 3 3 3 3 3 3 3 3 3 3 3 3 3 3 3 3 3 3 3 3 3 3 3 3 3 3 3 3 3 3 3 3 3 3 3 3 3 3 3 3 3 3 3 3 3 3 3 3 3 3 3 3 3 3 3 3 3 3 3 3 3 3 3 3 3 3 3 3 3 3 3 3 3 3 3 3 3 3 3 3 3 3 3 3 3 3 3 3 3 3 </DataArray>
</Cells>
</Piece>
</UnstructuredGrid>
</VTKFile>